<?xml version="1.0" encoding="UTF-8"?>
<svg version="1.1" xmlns="http://www.w3.org/2000/svg" width="256" height="256">
<path d="M0 0 C84.48 0 168.96 0 256 0 C256 84.48 256 168.96 256 256 C171.52 256 87.04 256 0 256 C0 171.52 0 87.04 0 0 Z " fill="#040348" transform="translate(0,0)"/>
<path d="M0 0 C7.88884963 7.35097352 12.31526606 16.10633639 16.86523438 25.72021484 C17.70615258 27.4711996 18.5940995 29.19936862 19.484375 30.92578125 C20.75 33.5625 20.75 33.5625 20.75 35.5625 C21.74 35.418125 22.73 35.27375 23.75 35.125 C30.43866708 34.17540055 36.97670653 33.28603904 43.75 33.5625 C42.10545669 39.20963551 39.43056283 43.91184876 36.40820312 48.90820312 C33.81030705 53.49577642 33.31399417 56.28502709 34.75 61.5625 C35.72326903 64.92145167 35.72326903 64.92145167 37.75 67.5625 C40.87442099 68.84018051 40.87442099 68.84018051 44.625 69.375 C68.48979877 74.36963807 91.35828757 87.86165556 109.75 103.5625 C110.61753906 104.27921875 111.48507813 104.9959375 112.37890625 105.734375 C116.37597276 109.09886229 116.37597276 109.09886229 117.75 110.5625 C117.75 111.2225 117.75 111.8825 117.75 112.5625 C118.74 112.8925 119.73 113.2225 120.75 113.5625 C124.10970283 117.82956783 126.50823933 122.06358386 127.375 127.4375 C126.61467257 131.23913717 125.69191224 132.09804565 122.75 134.5625 C111.04495421 140.57677604 97.91965356 143.86798165 84.75 143.5625 C84.70875 144.635 84.6675 145.7075 84.625 146.8125 C82.84345656 160.62556281 72.34314754 171.94619558 61.8515625 180.1640625 C59.75 181.5625 59.75 181.5625 57.75 181.5625 C57.481875 182.42875 57.21375 183.295 56.9375 184.1875 C55.77944203 187.47882264 54.30775349 190.44699302 52.75 193.5625 C52.75 194.2225 52.75 194.8825 52.75 195.5625 C55.12081442 196.71774418 57.49603957 197.86175208 59.875 199 C60.54015625 199.32548828 61.2053125 199.65097656 61.890625 199.98632812 C70.09618924 203.88799347 78.10079245 203.81067775 87.05078125 203.90429688 C94.10067489 204.1211391 97.37831549 205.52798394 102.625 210.25 C104.6987902 214.51279097 104.49230761 219.22465764 103.0703125 223.703125 C102.36566829 225.35400572 101.56631304 226.96388697 100.75 228.5625 C100.09 228.2325 99.43 227.9025 98.75 227.5625 C99.08 226.94375 99.41 226.325 99.75 225.6875 C101.15931472 221.2833915 101.38585523 217.14531022 100.75 212.5625 C98.57695944 209.45815635 96.19365348 208.02651725 92.75 206.5625 C90.33810262 206.2630953 90.33810262 206.2630953 87.75 206.2890625 C86.78521729 206.27093506 85.82043457 206.25280762 84.82641602 206.23413086 C83.30359009 206.21104858 83.30359009 206.21104858 81.75 206.1875 C73.05307141 205.9544677 65.73480828 205.2544006 57.75 201.5625 C57.75 200.9025 57.75 200.2425 57.75 199.5625 C54.78 198.5725 54.78 198.5725 51.75 197.5625 C53.83769739 202.01203687 56.59611013 206.00167992 59.2890625 210.1015625 C60.75 212.5625 60.75 212.5625 60.75 214.5625 C54.8995796 212.83775295 49.54194556 210.19865938 44.0625 207.5625 C42.6384082 206.88574219 42.6384082 206.88574219 41.18554688 206.1953125 C37.55298543 204.45744163 34.10577936 202.79968624 30.75 200.5625 C30.7075415 201.12050293 30.66508301 201.67850586 30.62133789 202.25341797 C29.96197106 209.82889489 28.6139695 217.22350831 27.1875 224.6875 C26.95353516 225.93015625 26.71957031 227.1728125 26.47851562 228.453125 C25.90612136 231.49031907 25.32987052 234.52672606 24.75 237.5625 C21.66297161 234.94898109 20.34618611 231.93081882 18.68359375 228.28515625 C18.40403336 227.67739853 18.12447296 227.06964081 17.83644104 226.44346619 C16.94717264 224.5067844 16.06713537 222.56607329 15.1875 220.625 C14.30223215 218.68849164 13.41512022 216.7528358 12.52784729 214.81724548 C11.72323633 213.05927037 10.92290763 211.29933717 10.12280273 209.53930664 C9.03898963 207.18914957 7.92670622 204.86701493 6.75 202.5625 C0.75330491 204.14317745 -4.09702814 207.32715242 -9.3125 210.5625 C-11.07209877 211.64927331 -12.83375562 212.73272287 -14.59765625 213.8125 C-15.37117432 214.29203125 -16.14469238 214.7715625 -16.94165039 215.265625 C-19.31680809 216.60003406 -21.70146194 217.60718548 -24.25 218.5625 C-22.8577541 213.93574343 -20.95479016 209.91563769 -18.625 205.6875 C-17.99335937 204.53507813 -17.36171875 203.38265625 -16.7109375 202.1953125 C-16.22882813 201.32648438 -15.74671875 200.45765625 -15.25 199.5625 C-16.14203125 199.91183594 -17.0340625 200.26117188 -17.953125 200.62109375 C-19.12359375 201.07613281 -20.2940625 201.53117188 -21.5 202 C-22.66015625 202.45246094 -23.8203125 202.90492188 -25.015625 203.37109375 C-29.03236464 204.85068987 -32.22468679 205.69625522 -36.5 205.625 C-38.35625 205.5940625 -38.35625 205.5940625 -40.25 205.5625 C-36.88145857 203.31680571 -34.52233187 202.91525289 -30.5625 202.1875 C-21.43597929 200.29633437 -15.78249123 198.16967544 -10.25 190.5625 C-10.93964844 190.45808594 -11.62929687 190.35367188 -12.33984375 190.24609375 C-26.76949367 186.85657867 -39.47666508 176.22703011 -47.625 164.2421875 C-50.7682723 159.05881058 -53.25 154.69111083 -53.25 148.5625 C-54.53648438 148.59859375 -55.82296875 148.6346875 -57.1484375 148.671875 C-64.3167652 148.6668251 -71.40457406 147.87226548 -78.51855469 147.07324219 C-80.87561345 146.81243212 -83.23430316 146.57403783 -85.59375 146.3359375 C-103.43030788 144.4217979 -103.43030788 144.4217979 -109.25 137.5625 C-110.16455698 133.21835433 -110.1640484 131.02448601 -107.796875 127.23828125 C-92.30096715 108.8738561 -67.80130567 96.28267887 -46.25 86.5625 C-45.59 86.5625 -44.93 86.5625 -44.25 86.5625 C-44.15203125 85.87027344 -44.0540625 85.17804688 -43.953125 84.46484375 C-42.65477241 75.96958844 -40.57401888 67.82066418 -38.25 59.5625 C-37.92 59.5625 -37.59 59.5625 -37.25 59.5625 C-37.67878268 66.24559563 -38.84880793 72.44238713 -40.62890625 78.8984375 C-41.40136603 81.75583809 -41.40136603 81.75583809 -41.25 85.5625 C-40.13882813 85.09199219 -39.02765625 84.62148437 -37.8828125 84.13671875 C-16.92679617 75.33434347 -16.92679617 75.33434347 -9.25 75.5625 C-11.85102226 77.5641531 -14.47882178 79.36986641 -17.296875 81.05078125 C-18.06 81.51033203 -18.823125 81.96988281 -19.609375 82.44335938 C-21.18646 83.38780652 -22.76456477 84.33055317 -24.34375 85.27148438 C-29.55629015 88.41562562 -34.45203894 91.81604548 -39.25 95.5625 C-38.19425781 95.19898437 -37.13851562 94.83546875 -36.05078125 94.4609375 C-19.40567487 88.78685901 -2.62603171 83.46935175 14.75 80.5625 C15.50410156 80.43101563 16.25820312 80.29953125 17.03515625 80.1640625 C33.00344565 77.88727365 50.49073447 79.27971567 65.75 84.5625 C66.74 86.0475 66.74 86.0475 67.75 87.5625 C68.74 87.2325 69.73 86.9025 70.75 86.5625 C73.60937195 87.61123517 76.3036768 88.72889522 79.0625 90 C79.85833496 90.35964844 80.65416992 90.71929687 81.47412109 91.08984375 C88.83219266 94.47705591 95.82022805 98.37344171 102.75 102.5625 C87.7128853 89.37668837 68.88401595 78.15745075 49.38256836 73.43652344 C37.83692102 70.6258265 37.83692102 70.6258265 34.05078125 66.921875 C31.2601219 62.05610999 30.37471012 59.00760842 31.75 53.5625 C32.68969727 51.3425293 32.68969727 51.3425293 33.81640625 49.13671875 C34.4206543 47.94272461 34.4206543 47.94272461 35.03710938 46.72460938 C35.45798828 45.90798828 35.87886719 45.09136719 36.3125 44.25 C36.73724609 43.41404297 37.16199219 42.57808594 37.59960938 41.71679688 C38.6443479 39.66253574 39.69459762 37.61129708 40.75 35.5625 C39.73679688 35.706875 38.72359375 35.85125 37.6796875 36 C36.32815455 36.18771291 34.97659036 36.37520096 33.625 36.5625 C32.95984375 36.65789063 32.2946875 36.75328125 31.609375 36.8515625 C27.61725887 37.39950001 23.77400605 37.60239101 19.75 37.5625 C19.35208252 36.74571777 18.95416504 35.92893555 18.54418945 35.08740234 C17.05044448 32.03135416 15.54932444 28.97916002 14.04321289 25.92919922 C13.39540681 24.61359006 12.75049156 23.29655305 12.10864258 21.97802734 C11.18043915 20.07257788 10.24162938 18.17266927 9.30078125 16.2734375 C8.74044189 15.13181152 8.18010254 13.99018555 7.6027832 12.81396484 C4.38712089 7.17077197 1.05624658 2.83274877 -5.25 0.5625 C-12.45367026 -0.73416065 -18.30922819 2.84504953 -24.25 6.5625 C-28.26680437 9.55442591 -31.98665315 12.89169434 -35.72119141 16.22363281 C-37.91714242 18.14675567 -40.20952852 19.94118591 -42.5 21.75 C-48.3224875 26.47648985 -53.72886049 31.62488024 -59.14941406 36.8034668 C-62.94178519 40.42220595 -66.77360488 43.93261711 -70.81347656 47.27441406 C-72.91944288 49.16276863 -74.17807746 50.94968882 -75.25 53.5625 C-74.99662339 56.28629855 -74.4677024 58.1270952 -73.25 60.5625 C-74.57 59.9025 -75.89 59.2425 -77.25 58.5625 C-77.80366694 55.73264677 -77.95295954 54.31534856 -77.25 51.5625 C-72.79155641 45.15414609 -66.68524712 39.9685593 -60.84765625 34.84375 C-58.13006571 32.45717425 -55.47180391 30.01375026 -52.8125 27.5625 C-48.32707512 23.48082644 -43.72603806 19.58868969 -39 15.7890625 C-37.1461184 14.28805041 -35.31291238 12.7611836 -33.5 11.2109375 C-23.80922203 2.97928235 -13.14072751 -5.81224486 0 0 Z " fill="#000202" transform="translate(120.25,11.4375)"/>
<path d="M0 0 C7.95758763 5.10403698 11.81627833 14.69507959 15.8125 22.875 C16.35777344 23.96683594 16.90304688 25.05867188 17.46484375 26.18359375 C21.4375 34.21851504 21.4375 34.21851504 21.4375 36.5 C22.36691406 36.355625 23.29632813 36.21125 24.25390625 36.0625 C26.10822266 35.7840625 26.10822266 35.7840625 28 35.5 C29.21816406 35.314375 30.43632812 35.12875 31.69140625 34.9375 C35.31377848 34.51444923 38.79462046 34.42498575 42.4375 34.5 C40.83606561 39.82456613 38.43017023 44.54339333 35.74023438 49.37695312 C34.37670948 51.96509913 33.42829807 53.97883607 33.48046875 56.93359375 C33.79628906 57.78050781 34.11210937 58.62742188 34.4375 59.5 C34.64810059 60.15508545 34.85870117 60.8101709 35.07568359 61.48510742 C36.30810538 64.65702504 37.31738597 66.9034631 40.39404297 68.54199219 C42.87188199 69.29977021 45.33627939 69.85687492 47.875 70.375 C69.40420891 75.68387956 88.85319931 86.86424639 105.4375 101.5 C102.22002406 101.5 101.32346489 101.06396024 98.62890625 99.48828125 C97.88688965 99.06208496 97.14487305 98.63588867 96.38037109 98.19677734 C95.59484863 97.73996582 94.80932617 97.2831543 94 96.8125 C86.97313627 92.80502491 80.03011686 89.32862197 72.4375 86.5 C71.27938612 87.55270463 71.27938612 87.55270463 70.4375 89.5 C67.4375 85.75 67.4375 85.75 67.4375 83.5 C66.44363281 83.36722656 65.44976562 83.23445313 64.42578125 83.09765625 C61.15424379 82.63240374 57.93108769 82.0029014 54.69262695 81.34448242 C26.38238909 75.77202209 -1.09564153 83.20277379 -27.7644043 92.64086914 C-29.41629761 93.21695923 -29.41629761 93.21695923 -31.1015625 93.8046875 C-32.57423584 94.3303833 -32.57423584 94.3303833 -34.07666016 94.86669922 C-36.5625 95.5 -36.5625 95.5 -39.5625 94.5 C-29.73748168 87.84333679 -19.93807101 81.27776895 -9.5625 75.5 C-15.2151847 76.17981216 -20.2987264 78.02440539 -25.625 79.9375 C-26.50994141 80.25009766 -27.39488281 80.56269531 -28.30664062 80.88476562 C-32.42492549 82.34609251 -36.52348066 83.82897121 -40.5625 85.5 C-39.9247098 77.97407567 -38.36360167 70.82901118 -36.5625 63.5 C-37.42329127 66.08237381 -37.71572915 67.86895626 -37.91015625 70.52734375 C-38.70199137 76.91372303 -39.64174239 83.10489126 -44.84423828 87.37109375 C-50.73474257 90.89588699 -57.08006826 93.42201497 -63.40087891 96.06445312 C-68.35706127 98.31482782 -72.84101355 101.19318164 -77.375 104.1875 C-78.90167736 105.19241936 -80.42896404 106.19641403 -81.95703125 107.19921875 C-82.58456299 107.62033936 -83.21209473 108.04145996 -83.85864258 108.4753418 C-85.5625 109.5 -85.5625 109.5 -88.5625 110.5 C-88.65576839 103.25821738 -88.72654967 96.01656728 -88.76974869 88.77430248 C-88.79049721 85.41027075 -88.81857591 82.0466542 -88.86425781 78.68286133 C-88.91312704 74.80278844 -88.93555005 70.92329474 -88.953125 67.04296875 C-88.97377014 65.85293747 -88.99441528 64.66290619 -89.01568604 63.43681335 C-89.01891472 51.25030081 -85.63078299 42.5681984 -77.5625 33.5 C-76.81226563 32.57574219 -76.81226563 32.57574219 -76.046875 31.6328125 C-70.20142257 24.99025292 -60.35732114 19.62974125 -51.5625 18.5 C-49.79272239 18.43540958 -48.02079848 18.41388935 -46.25 18.4375 C-44.92548828 18.45103516 -44.92548828 18.45103516 -43.57421875 18.46484375 C-42.57841797 18.48224609 -42.57841797 18.48224609 -41.5625 18.5 C-45.9008193 22.8982172 -50.37637605 27.14146647 -54.875 31.375 C-55.9568457 32.39787109 -55.9568457 32.39787109 -57.06054688 33.44140625 C-61.22539902 37.36346432 -65.44864287 41.17828035 -69.82495117 44.86376953 C-73.1403782 47.98587041 -74.51701525 49.59030492 -74.75 54.25 C-74.688125 55.3225 -74.62625 56.395 -74.5625 57.5 C-74.5625 57.17 -74.5625 56.84 -74.5625 56.5 C-74.5625 50.66084438 -71.58595478 47.74950677 -67.79296875 43.71484375 C-65.22569141 41.16555084 -62.57862321 38.77268146 -59.81640625 36.4375 C-57.59083528 34.52435754 -55.43396052 32.54762968 -53.28417969 30.55004883 C-48.11929159 25.7525549 -42.84584368 21.16577227 -37.33984375 16.7578125 C-35.40557793 15.18537137 -33.50383188 13.57243192 -31.62890625 11.9296875 C-12.09253853 -5.09159517 -12.09253853 -5.09159517 0 0 Z " fill="#413675" transform="translate(118.5625,12.5)"/>
<path d="M0 0 C8.73730897 -0.1167219 17.47434265 -0.205129 26.21226597 -0.25906086 C30.27127007 -0.28496774 34.32973425 -0.3200108 38.38842773 -0.37719727 C42.31776539 -0.43220392 46.24658941 -0.46156198 50.17628288 -0.47438622 C51.66278083 -0.4835049 53.1492561 -0.50130477 54.63553047 -0.52865028 C68.86879843 -0.77970238 81.54998123 1.93345452 93 11 C93.61101562 11.43828125 94.22203125 11.8765625 94.8515625 12.328125 C103.37630175 18.86250663 109.86258 30.48025129 112 41 C112.08710106 43.10824137 112.117679 45.21906577 112.11352539 47.32910156 C112.11341209 49.25064056 112.11341209 49.25064056 112.11329651 51.21099854 C112.10819026 52.60420775 112.10297427 53.99741657 112.09765625 55.390625 C112.09579032 56.81980337 112.09436724 58.24898238 112.09336853 59.67816162 C112.08955715 63.43300148 112.07973867 67.18780243 112.06866455 70.94262695 C112.05842075 74.77685012 112.05386455 78.61107959 112.04882812 82.4453125 C112.03811514 89.96355937 112.02105531 97.48177423 112 105 C110.72422571 104.05173697 109.4496338 103.10188306 108.17553711 102.15136719 C107.11066322 101.35820099 107.11066322 101.35820099 106.02427673 100.54901123 C103.4309737 98.56457133 101.00660841 96.41447045 98.5625 94.25 C82.32951521 80.39862749 57.97814563 67.29568688 36.875 63.6875 C33.42953512 62.97040201 31.55863157 62.55304526 29.046875 60.06640625 C26.83149034 56.45727685 25.97137624 54.10814825 26.08203125 49.82421875 C27.29940898 44.75267493 29.55093339 40.60542998 32.0625 36.0625 C32.53494141 35.18787109 33.00738281 34.31324219 33.49414062 33.41210938 C34.65332746 31.26937008 35.82203317 29.13245471 37 27 C35.92621094 27.144375 34.85242188 27.28875 33.74609375 27.4375 C32.30992644 27.62523429 30.87372676 27.81272109 29.4375 28 C28.38079102 28.14308594 28.38079102 28.14308594 27.30273438 28.2890625 C22.82632145 28.86666417 18.51338762 29.09489383 14 29 C0 2.98984772 0 2.98984772 0 0 Z " fill="#00D5E3" transform="translate(127,18)"/>
<path d="M0 0 C2.64 1.32 5.28 2.64 8 4 C8 4.66 8 5.32 8 6 C8.86625 6.12375 9.7325 6.2475 10.625 6.375 C14 7 14 7 16.5 8.01953125 C22.34636815 9.65729733 28.37180704 9.32215036 34.4140625 9.30273438 C41.1163228 9.43870955 45.86910094 10.48978825 51 15 C53.09873195 19.1974639 52.6674298 24.69162815 51.38671875 29.12109375 C48.76335168 34.86476526 44.55070852 39.68186602 40 44 C39.14164047 44.85816818 38.28328094 45.71633636 37.39891052 46.60050964 C31.38824211 50.79356946 23.34099883 49.648792 16.32446289 49.56762695 C14.61901898 49.56621555 12.91357203 49.56701026 11.20812988 49.56983948 C6.59065526 49.57127146 1.97383278 49.54191709 -2.64349055 49.50696969 C-7.47343925 49.47566983 -12.30340364 49.47277259 -17.13343811 49.46684265 C-26.27421001 49.45131488 -35.41468219 49.41030081 -44.55532223 49.3600952 C-54.9639503 49.30416858 -65.37259284 49.27670688 -75.7813338 49.25161803 C-97.18772303 49.19938405 -118.59384262 49.11146246 -140 49 C-141.35409164 46.50943858 -142.68272152 44.00994955 -144 41.5 C-144.3815625 40.80390625 -144.763125 40.1078125 -145.15625 39.390625 C-147.7921656 34.30707349 -148.50415987 30.72405903 -148 25 C-146.16930618 20.62667589 -143.11329459 17.34240455 -139 15 C-132.36864941 12.65897469 -126.00702481 11.59574857 -119 12 C-119.53625 12.391875 -120.0725 12.78375 -120.625 13.1875 C-121.40875 13.785625 -122.1925 14.38375 -123 15 C-124.0725 15.70125 -125.145 16.4025 -126.25 17.125 C-129.09284951 20.09706994 -129.47407015 20.58929515 -129.6875 24.4375 C-129.39977348 28.28664149 -128.40801851 30.89261617 -125.609375 33.71484375 C-120.57324307 37.73641512 -116.24041008 39.46474171 -109.66748047 39.33007812 C-104.16312419 38.64896064 -99.08734055 36.54151274 -93.9375 34.5625 C-92.74970947 34.11600098 -91.56191895 33.66950195 -90.33813477 33.20947266 C-82.03222173 30.00284882 -74.31992791 26.28167064 -66.74609375 21.6171875 C-64 20 -64 20 -62 20 C-62 19.34 -62 18.68 -62 18 C-57.37003374 12.99156238 -51.41150181 8.42802435 -45 6 C-42 7 -42 7 -40.40600586 9.69628906 C-39.84792236 10.87416992 -39.28983887 12.05205078 -38.71484375 13.265625 C-38.26220909 14.21124298 -38.26220909 14.21124298 -37.8004303 15.17596436 C-36.83648557 17.19622255 -35.88708877 19.22296084 -34.9375 21.25 C-34.29452219 22.60069036 -33.65065205 23.95095633 -33.00585938 25.30078125 C-30.53757169 30.4899628 -28.13531101 35.66172246 -26 41 C-23.69 29.12 -21.38 17.24 -19 5 C-15.42574736 6.42970105 -12.01135737 7.90471461 -8.55078125 9.56640625 C-7.53822266 10.05173828 -6.52566406 10.53707031 -5.48242188 11.03710938 C-3.91331055 11.79217773 -3.91331055 11.79217773 -2.3125 12.5625 C-0.72598633 13.32336914 -0.72598633 13.32336914 0.89257812 14.09960938 C8.50992063 17.75496032 8.50992063 17.75496032 11 19 C10.50016602 18.24323975 10.50016602 18.24323975 9.99023438 17.47119141 C8.48875879 15.19220346 6.99431208 12.9086907 5.5 10.625 C4.97535156 9.8309375 4.45070312 9.036875 3.91015625 8.21875 C3.41386719 7.45820313 2.91757813 6.69765625 2.40625 5.9140625 C1.71499023 4.8614624 1.71499023 4.8614624 1.00976562 3.78759766 C0 2 0 2 0 0 Z " fill="#433677" transform="translate(170,207)"/>
<path d="M0 0 C0.495 0.7425 0.99 1.485 1.5 2.25 C7.26805104 8.59485615 14.39791222 9.71033994 22.625 10.484375 C24.10625366 10.64235565 24.10625366 10.64235565 25.61743164 10.80352783 C28.74364089 11.13359639 31.87153606 11.44211636 35 11.75 C37.13165879 11.97123126 39.26317165 12.19387338 41.39453125 12.41796875 C46.59477794 12.96164029 51.796576 13.48768118 57 14 C57.25467041 14.73822998 57.50934082 15.47645996 57.77172852 16.23706055 C58.11647217 17.21457275 58.46121582 18.19208496 58.81640625 19.19921875 C59.15357666 20.16432373 59.49074707 21.12942871 59.83813477 22.1237793 C61.62012203 26.53512453 64.16329279 30.20777035 67 34 C68.0828125 35.5159375 68.0828125 35.5159375 69.1875 37.0625 C76.84875699 45.83900326 89.03728077 52.34576026 100 56 C98.13111576 61.04598745 94.39910367 63.84548254 89.7109375 66.1015625 C73.52272927 72.212961 55.42762017 72.35822386 38.34228516 72.62182617 C31.59425312 72.74961283 25.52497331 73.24354773 19 75 C11.06313848 63.07241317 6.81430322 54.06062217 6.90234375 39.6640625 C6.9037587 38.78471039 6.90517365 37.90535828 6.90663147 36.99935913 C6.91220123 34.20787058 6.9247481 31.41646406 6.9375 28.625 C6.94251891 26.72526158 6.94708113 24.8255219 6.95117188 22.92578125 C6.96216075 18.28382286 6.97940443 13.64192531 7 9 C6.37609375 8.86078125 5.7521875 8.7215625 5.109375 8.578125 C2.53121771 7.87151893 1.5521324 7.17298536 0 5 C-0.1875 2.3125 -0.1875 2.3125 0 0 Z " fill="#00D5E3" transform="translate(10,146)"/>
<path d="M0 0 C-1.60143439 5.32456613 -4.00732977 10.04339333 -6.69726562 14.87695312 C-8.06079052 17.46509913 -9.00920193 19.47883607 -8.95703125 22.43359375 C-8.64121094 23.28050781 -8.32539063 24.12742187 -8 25 C-7.68409912 25.98262817 -7.68409912 25.98262817 -7.36181641 26.98510742 C-6.12939462 30.15702504 -5.12011403 32.4034631 -2.04345703 34.04199219 C0.43438199 34.79977021 2.89877939 35.35687492 5.4375 35.875 C26.96670891 41.18387956 46.41569931 52.36424639 63 67 C59.78252406 67 58.88596489 66.56396024 56.19140625 64.98828125 C55.44938965 64.56208496 54.70737305 64.13588867 53.94287109 63.69677734 C52.7645874 63.01156006 52.7645874 63.01156006 51.5625 62.3125 C44.53563627 58.30502491 37.59261686 54.82862197 30 52 C28.84188612 53.05270463 28.84188612 53.05270463 28 55 C25 51.25 25 51.25 25 49 C24.00613281 48.86722656 23.01226562 48.73445313 21.98828125 48.59765625 C18.71674379 48.13240374 15.49358769 47.5029014 12.25512695 46.84448242 C-16.05511091 41.27202209 -43.53314153 48.70277379 -70.2019043 58.14086914 C-71.3031665 58.5249292 -72.40442871 58.90898926 -73.5390625 59.3046875 C-74.52084473 59.65515137 -75.50262695 60.00561523 -76.51416016 60.36669922 C-79 61 -79 61 -82 60 C-72.17498168 53.34333679 -62.37557101 46.77776895 -52 41 C-57.6526847 41.67981216 -62.7362264 43.52440539 -68.0625 45.4375 C-69.38991211 45.90639648 -69.38991211 45.90639648 -70.74414062 46.38476562 C-74.86242549 47.84609251 -78.96098066 49.32897121 -83 51 C-82.35699083 44.06979002 -81.15538869 37.41154509 -79.625 30.625 C-79.31175781 29.14966797 -79.31175781 29.14966797 -78.9921875 27.64453125 C-78.78078125 26.70222656 -78.569375 25.75992188 -78.3515625 24.7890625 C-78.16416504 23.94037598 -77.97676758 23.09168945 -77.78369141 22.21728516 C-76.90983288 19.74489166 -76.02185944 18.63967678 -74 17 C-71.51953125 15.83203125 -71.51953125 15.83203125 -68.8125 14.8125 C-67.91144531 14.46832031 -67.01039062 14.12414063 -66.08203125 13.76953125 C-65.39496094 13.51558594 -64.70789063 13.26164062 -64 13 C-64.33 12.01 -64.66 11.02 -65 10 C-63.28468214 7.88246475 -62.29329764 7.06963052 -59.60595703 6.43164062 C-58.66606934 6.34076172 -57.72618164 6.24988281 -56.7578125 6.15625 C-55.17299072 5.99068604 -55.17299072 5.99068604 -53.55615234 5.82177734 C-52.42387207 5.71559082 -51.2915918 5.6094043 -50.125 5.5 C-47.76537308 5.25501858 -45.40599938 5.00758693 -43.046875 4.7578125 C-41.86416016 4.63438477 -40.68144531 4.51095703 -39.46289062 4.38378906 C-33.57182559 3.73088761 -27.71466427 2.86880753 -21.85205078 2.00195312 C-7.28470768 -0.15176474 -7.28470768 -0.15176474 0 0 Z " fill="#433B77" transform="translate(161,47)"/>
<path d="M0 0 C1.32451172 0.01353516 1.32451172 0.01353516 2.67578125 0.02734375 C3.67158203 0.04474609 3.67158203 0.04474609 4.6875 0.0625 C0.3491807 4.4607172 -4.12637605 8.70396647 -8.625 12.9375 C-9.34623047 13.61941406 -10.06746094 14.30132812 -10.81054688 15.00390625 C-14.97539902 18.92596432 -19.19864287 22.74078035 -23.57495117 26.42626953 C-26.80312516 29.46620519 -28.2363781 31.179486 -28.625 35.6875 C-28.66848629 39.13244771 -28.66848629 39.13244771 -26.3125 41.0625 C-17.76597997 42.56050628 -9.43434854 40.09305717 -1.25634766 37.84155273 C6.4968849 35.71830163 6.4968849 35.71830163 10.6875 36.0625 C9.82140708 41.85941736 8.49444991 47.54049597 7.1875 53.25 C6.96191406 54.24708984 6.73632812 55.24417969 6.50390625 56.27148438 C4.81621469 63.67635594 4.81621469 63.67635594 3.6875 67.0625 C1.67236328 68.31420898 1.67236328 68.31420898 -0.9921875 69.55859375 C-1.97550049 70.02934326 -2.95881348 70.50009277 -3.97192383 70.98510742 C-5.03306396 71.48502197 -6.0942041 71.98493652 -7.1875 72.5 C-17.84196259 77.64812782 -27.78898907 83.44812182 -37.60864258 90.0378418 C-39.3125 91.0625 -39.3125 91.0625 -42.3125 92.0625 C-42.40576839 84.82071738 -42.47654967 77.57906728 -42.51974869 70.33680248 C-42.54049721 66.97277075 -42.56857591 63.6091542 -42.61425781 60.24536133 C-42.66312704 56.36528844 -42.68555005 52.48579474 -42.703125 48.60546875 C-42.72377014 47.41543747 -42.74441528 46.22540619 -42.76568604 44.99931335 C-42.76891472 32.81280081 -39.38078299 24.1306984 -31.3125 15.0625 C-30.81234375 14.44632813 -30.3121875 13.83015625 -29.796875 13.1953125 C-22.50909855 4.91374835 -10.94733285 -0.14596444 0 0 Z " fill="#01B3DC" transform="translate(72.3125,30.9375)"/>
<path d="M0 0 C8.73730897 -0.1167219 17.47434265 -0.205129 26.21226597 -0.25906086 C30.27127007 -0.28496774 34.32973425 -0.3200108 38.38842773 -0.37719727 C42.31776539 -0.43220392 46.24658941 -0.46156198 50.17628288 -0.47438622 C51.66278083 -0.4835049 53.1492561 -0.50130477 54.63553047 -0.52865028 C68.86879843 -0.77970238 81.54998123 1.93345452 93 11 C93.61101562 11.43828125 94.22203125 11.8765625 94.8515625 12.328125 C103.37630175 18.86250663 109.86258 30.48025129 112 41 C112.08710106 43.10824137 112.117679 45.21906577 112.11352539 47.32910156 C112.11341209 49.25064056 112.11341209 49.25064056 112.11329651 51.21099854 C112.10819026 52.60420775 112.10297427 53.99741657 112.09765625 55.390625 C112.09579032 56.81980337 112.09436724 58.24898238 112.09336853 59.67816162 C112.08955715 63.43300148 112.07973867 67.18780243 112.06866455 70.94262695 C112.05842075 74.77685012 112.05386455 78.61107959 112.04882812 82.4453125 C112.03811514 89.96355937 112.02105531 97.48177423 112 105 C110.04713977 103.55765907 108.1047731 102.10534719 106.177948 100.62826538 C104.09333676 99.02203771 104.09333676 99.02203771 102.14846802 97.84561157 C99.71532433 96.2161086 98.17072523 94.76268905 97.5223999 91.86639404 C97.36998617 89.16564919 97.43037266 86.53809504 97.5546875 83.8359375 C97.57266388 82.84808258 97.59064026 81.86022766 97.60916138 80.84243774 C97.66912556 77.68518522 97.7685313 74.53100203 97.875 71.375 C99.07980985 53.63136381 99.07980985 53.63136381 94 37 C93.11441406 35.39898437 93.11441406 35.39898437 92.2109375 33.765625 C84.60403704 23.34255288 74.7298487 16.65874473 62 14 C60.13668854 13.91404983 58.27056145 13.88227351 56.40527344 13.88647461 C55.28441345 13.88655014 54.16355347 13.88662567 53.00872803 13.88670349 C51.80444153 13.89186478 50.60015503 13.89702606 49.359375 13.90234375 C47.50339691 13.90446617 47.50339691 13.90446617 45.60992432 13.90663147 C42.32855059 13.9112789 39.04722627 13.92025653 35.76586914 13.93133545 C32.41422989 13.9415848 29.06258852 13.94605141 25.7109375 13.95117188 C19.14060569 13.96219975 12.57030689 13.97893704 6 14 C4.99515796 12.04414675 3.99626195 10.08523763 3 8.125 C2.1646875 6.48917969 2.1646875 6.48917969 1.3125 4.8203125 C0 2 0 2 0 0 Z " fill="#0078D8" transform="translate(127,18)"/>
<path d="M0 0 C7.88884963 7.35097352 12.31526606 16.10633639 16.86523438 25.72021484 C17.70615258 27.4711996 18.5940995 29.19936862 19.484375 30.92578125 C20.75 33.5625 20.75 33.5625 20.75 35.5625 C21.74 35.418125 22.73 35.27375 23.75 35.125 C30.43866708 34.17540055 36.97670653 33.28603904 43.75 33.5625 C42.10545669 39.20963551 39.43056283 43.91184876 36.40820312 48.90820312 C33.81030705 53.49577642 33.31399417 56.28502709 34.75 61.5625 C35.72326903 64.92145167 35.72326903 64.92145167 37.75 67.5625 C40.87442099 68.84018051 40.87442099 68.84018051 44.625 69.375 C68.48979877 74.36963807 91.35828757 87.86165556 109.75 103.5625 C110.61753906 104.27921875 111.48507813 104.9959375 112.37890625 105.734375 C116.37597276 109.09886229 116.37597276 109.09886229 117.75 110.5625 C117.75 111.2225 117.75 111.8825 117.75 112.5625 C118.74 112.8925 119.73 113.2225 120.75 113.5625 C124.10970283 117.82956783 126.50823933 122.06358386 127.375 127.4375 C126.61716069 131.22669656 125.66505271 132.09293707 122.75 134.5625 C110.73267935 141.20190367 97.14973181 142.70794649 83.75 144.5625 C83.79640625 143.3765625 83.8428125 142.190625 83.890625 140.96875 C84.19067915 129.72547578 82.9094874 120.34789877 79.75 109.5625 C79.39507354 107.90029782 79.05208777 106.23511229 78.75 104.5625 C78.09 104.5625 77.43 104.5625 76.75 104.5625 C75.09375 102.1484375 75.09375 102.1484375 73.25 98.9375 C72.6415625 97.89335938 72.033125 96.84921875 71.40625 95.7734375 C69.84296401 92.7427274 68.72904561 89.82272189 67.75 86.5625 C72.1917829 87.23601411 76.10527427 88.82247802 80.1875 90.625 C80.88037109 90.92865479 81.57324219 91.23230957 82.28710938 91.54516602 C89.39215124 94.73160597 96.08376652 98.55234393 102.75 102.5625 C87.7128853 89.37668837 68.88401595 78.15745075 49.38256836 73.43652344 C37.83692102 70.6258265 37.83692102 70.6258265 34.05078125 66.921875 C31.2601219 62.05610999 30.37471012 59.00760842 31.75 53.5625 C32.68969727 51.3425293 32.68969727 51.3425293 33.81640625 49.13671875 C34.4206543 47.94272461 34.4206543 47.94272461 35.03710938 46.72460938 C35.45798828 45.90798828 35.87886719 45.09136719 36.3125 44.25 C36.73724609 43.41404297 37.16199219 42.57808594 37.59960938 41.71679688 C38.6443479 39.66253574 39.69459762 37.61129708 40.75 35.5625 C39.73679687 35.706875 38.72359375 35.85125 37.6796875 36 C36.32815455 36.18771291 34.97659036 36.37520096 33.625 36.5625 C32.95984375 36.65789063 32.2946875 36.75328125 31.609375 36.8515625 C27.61725887 37.39950001 23.77400605 37.60239101 19.75 37.5625 C19.35208252 36.74571777 18.95416504 35.92893555 18.54418945 35.08740234 C17.05044448 32.03135416 15.54932444 28.97916002 14.04321289 25.92919922 C13.39540681 24.61359006 12.75049156 23.29655305 12.10864258 21.97802734 C11.18043915 20.07257788 10.24162938 18.17266927 9.30078125 16.2734375 C8.74044189 15.13181152 8.18010254 13.99018555 7.6027832 12.81396484 C4.38712089 7.17077197 1.05624658 2.83274877 -5.25 0.5625 C-12.45367026 -0.73416065 -18.30922819 2.84504953 -24.25 6.5625 C-28.26680437 9.55442591 -31.98665315 12.89169434 -35.72119141 16.22363281 C-37.91714242 18.14675567 -40.20952852 19.94118591 -42.5 21.75 C-48.3224875 26.47648985 -53.72886049 31.62488024 -59.14941406 36.8034668 C-62.94178519 40.42220595 -66.77360488 43.93261711 -70.81347656 47.27441406 C-72.91944288 49.16276863 -74.17807746 50.94968882 -75.25 53.5625 C-74.99662339 56.28629855 -74.4677024 58.1270952 -73.25 60.5625 C-74.57 59.9025 -75.89 59.2425 -77.25 58.5625 C-77.80366694 55.73264677 -77.95295954 54.31534856 -77.25 51.5625 C-72.79155641 45.15414609 -66.68524712 39.9685593 -60.84765625 34.84375 C-58.13006571 32.45717425 -55.47180391 30.01375026 -52.8125 27.5625 C-48.32707512 23.48082644 -43.72603806 19.58868969 -39 15.7890625 C-37.1461184 14.28805041 -35.31291238 12.7611836 -33.5 11.2109375 C-23.80922203 2.97928235 -13.14072751 -5.81224486 0 0 Z " fill="#030506" transform="translate(120.25,11.4375)"/>
<path d="M0 0 C0.99 0.495 0.99 0.495 2 1 C0.82009775 1.80294647 -0.36945689 2.59171174 -1.5625 3.375 C-2.55443359 4.03628906 -2.55443359 4.03628906 -3.56640625 4.7109375 C-6.60547738 6.32071835 -9.68015809 7.13885313 -13 8 C-12.98428955 8.84594727 -12.9685791 9.69189453 -12.95239258 10.56347656 C-12.90066055 13.76169484 -12.86336094 16.95969691 -12.83520508 20.15820312 C-12.82030077 21.53132226 -12.79997003 22.90439539 -12.77368164 24.27734375 C-12.53248748 37.21670103 -14.04175357 48.86680572 -21 60 C-21.58136719 60.9384375 -22.16273438 61.876875 -22.76171875 62.84375 C-26.05033523 67.30374035 -28.28416601 69.69087201 -33.859375 70.6953125 C-37.96469668 70.87124797 -41.92533973 70.50024685 -46 70 C-46.76441406 69.92136719 -47.52882812 69.84273438 -48.31640625 69.76171875 C-55.25135548 68.51852051 -61.81335209 64.24972797 -68 61 C-65.11740535 52.20247089 -62.80017552 47.11472774 -55.16796875 41.57421875 C-44.38639895 33.74543924 -37.46113803 21.97889181 -35 9 C-34.04915527 8.85751831 -34.04915527 8.85751831 -33.07910156 8.7121582 C-17.07951542 6.41057195 -17.07951542 6.41057195 -2.01171875 0.85546875 C-1.01591797 0.43201172 -1.01591797 0.43201172 0 0 Z " fill="#01B4DC" transform="translate(240,146)"/>
<path d="M0 0 C0.72256485 0.0028299 1.4451297 0.00565979 2.18959045 0.00857544 C4.47162241 0.01966864 6.75324522 0.04475162 9.03515625 0.0703125 C10.59309324 0.08035639 12.15103646 0.08947976 13.70898438 0.09765625 C17.50536324 0.11957217 21.30144065 0.15402512 25.09765625 0.1953125 C24.31173096 0.97559814 23.52580566 1.75588379 22.71606445 2.55981445 C21.16763663 4.11834857 19.64878147 5.70897333 18.203125 7.36328125 C13.64983 12.15768759 9.94078974 13.7714722 3.41015625 14.2578125 C-8.4420452 15.15111061 -17.97900022 20.069485 -26.0703125 28.94140625 C-34.44194134 39.24083021 -36.35951791 48.26172171 -35.73828125 61.41015625 C-35.66626508 63.9784331 -35.59734942 66.54679843 -35.53125 69.11523438 C-35.41379738 73.13098354 -35.28251372 77.14242132 -35.08642578 81.1550293 C-34.0147825 104.84880091 -34.0147825 104.84880091 -38.80566406 110.23876953 C-41.62768572 112.68877294 -45.99160132 116.1953125 -49.90234375 116.1953125 C-49.99553639 106.77149691 -50.06635623 97.347843 -50.10959244 87.92366505 C-50.13035675 83.54635508 -50.15846688 79.16936326 -50.20410156 74.79223633 C-50.24796202 70.55818804 -50.27156445 66.32444333 -50.28185272 62.09018517 C-50.28917274 60.48484209 -50.30346425 58.87951327 -50.32526398 57.27430153 C-50.54181135 40.6488319 -47.14446196 27.59492143 -35.875 14.9140625 C-26.41457726 5.75313173 -13.1753209 -0.19834045 0 0 Z " fill="#024EA1" transform="translate(66.90234375,17.8046875)"/>
<path d="M0 0 C2.56602757 2.56602757 3.02142699 4.78239561 4.0625 8.25 C4.40410156 9.36890625 4.74570313 10.4878125 5.09765625 11.640625 C8.52153237 24.38752309 9.70753189 41.57885831 3.5625 53.5546875 C-0.77974188 60.35029604 -5.53079969 67.50251732 -13 71 C-14.18437716 71.8936664 -15.35032671 72.81210863 -16.5 73.75 C-32.34055805 85.77709037 -52.41700993 90.31374357 -72 89 C-85.70086021 86.95604883 -98.81295041 82.19433569 -110 74 C-111.05960938 73.23429687 -111.05960938 73.23429687 -112.140625 72.453125 C-121.062155 65.35804996 -126.83235433 55.80189963 -130 45 C-111.10651304 43.36387336 -111.10651304 43.36387336 -106.5859375 46.875 C-105.25 49.375 -105.25 49.375 -104.15625 52.13671875 C-99.73765612 63.07870967 -87.7407568 70.69571407 -77.30078125 75.17578125 C-70.62383143 77.56769366 -64.84988259 78.35680804 -57.8125 78.3125 C-56.88066895 78.30686035 -55.94883789 78.3012207 -54.98876953 78.29541016 C-40.31964518 78.03751955 -27.95752086 73.54027045 -17.1328125 63.39453125 C-10.60461082 56.06524987 -6.16833979 47.23404294 -3 38 C-0.36 38 2.28 38 5 38 C5.67476415 25.02953354 2.96898538 12.56109199 0 0 Z " fill="#433A74" transform="translate(198,116)"/>
<path d="M0 0 C1.96293766 1.96293766 2.68347281 3.27094455 3.8125 5.75 C5.1961508 8.62172808 6.65835544 10.96931249 8.75 13.375 C11 16 11 16 11 18 C11.59039062 18.26425781 12.18078125 18.52851563 12.7890625 18.80078125 C15.07565275 20.04103427 16.53206083 21.36540855 18.375 23.1875 C32.13670771 35.42012907 52.048535 39.82496716 69.984375 39.13183594 C86.8277141 38.03016405 106.18099092 31.4153811 118 19 C118.66 19.33 119.32 19.66 120 20 C118.54712339 21.33927721 117.08752741 22.67126847 115.625 24 C114.81289062 24.7425 114.00078125 25.485 113.1640625 26.25 C111 28 111 28 109 28 C108.731875 28.86625 108.46375 29.7325 108.1875 30.625 C107.02944203 33.91632264 105.55775349 36.88449302 104 40 C104 40.66 104 41.32 104 42 C106.37081442 43.15524418 108.74603957 44.29925208 111.125 45.4375 C111.79015625 45.76298828 112.4553125 46.08847656 113.140625 46.42382812 C121.34618924 50.32549347 129.35079245 50.24817775 138.30078125 50.34179688 C145.35067489 50.5586391 148.62831549 51.96548394 153.875 56.6875 C155.9487902 60.95029097 155.74230761 65.66215764 154.3203125 70.140625 C153.61566829 71.79150572 152.81631304 73.40138697 152 75 C151.34 74.67 150.68 74.34 150 74 C150.33 73.38125 150.66 72.7625 151 72.125 C152.40931472 67.7208915 152.63585523 63.58281022 152 59 C149.82695944 55.89565635 147.44365348 54.46401725 144 53 C141.58810262 52.7005953 141.58810262 52.7005953 139 52.7265625 C138.03521729 52.70843506 137.07043457 52.69030762 136.07641602 52.67163086 C134.55359009 52.64854858 134.55359009 52.64854858 133 52.625 C124.30307141 52.3919677 116.98480828 51.6919006 109 48 C109 47.34 109 46.68 109 46 C107.02 45.34 105.04 44.68 103 44 C105.08769739 48.44953687 107.84611013 52.43917992 110.5390625 56.5390625 C112 59 112 59 112 61 C106.1495796 59.27525295 100.79194556 56.63615938 95.3125 54 C94.36310547 53.54882812 93.41371094 53.09765625 92.43554688 52.6328125 C88.80298543 50.89494163 85.35577936 49.23718624 82 47 C81.9575415 47.55800293 81.91508301 48.11600586 81.87133789 48.69091797 C81.21197106 56.26639489 79.8639695 63.66100831 78.4375 71.125 C78.20353516 72.36765625 77.96957031 73.6103125 77.72851562 74.890625 C77.15612136 77.92781907 76.57987052 80.96422606 76 84 C72.91297161 81.38648109 71.59618611 78.36831882 69.93359375 74.72265625 C69.65403336 74.11489853 69.37447296 73.50714081 69.08644104 72.88096619 C68.19717264 70.9442844 67.31713537 69.00357329 66.4375 67.0625 C65.55223215 65.12599164 64.66512022 63.1903358 63.77784729 61.25474548 C62.97323633 59.49677037 62.17290763 57.73683717 61.37280273 55.97680664 C60.28898963 53.62664957 59.17670622 51.30451493 58 49 C52.00330491 50.58067745 47.15297186 53.76465242 41.9375 57 C40.17790123 58.08677331 38.41624438 59.17022287 36.65234375 60.25 C35.87882568 60.72953125 35.10530762 61.2090625 34.30834961 61.703125 C31.93319191 63.03753406 29.54853806 64.04468548 27 65 C28.3922459 60.37324343 30.29520984 56.35313769 32.625 52.125 C33.25664063 50.97257812 33.88828125 49.82015625 34.5390625 48.6328125 C35.02117187 47.76398438 35.50328125 46.89515625 36 46 C34.66195312 46.52400391 34.66195312 46.52400391 33.296875 47.05859375 C32.12640625 47.51363281 30.9559375 47.96867187 29.75 48.4375 C28.58984375 48.88996094 27.4296875 49.34242188 26.234375 49.80859375 C22.21763536 51.28818987 19.02531321 52.13375522 14.75 52.0625 C12.89375 52.0315625 12.89375 52.0315625 11 52 C14.36854143 49.75430571 16.72766813 49.35275289 20.6875 48.625 C29.81402071 46.73383437 35.46750877 44.60717544 41 37 C39.96552734 36.84337891 39.96552734 36.84337891 38.91015625 36.68359375 C24.38588491 33.27185216 11.77858044 22.59341607 3.55859375 10.5625 C1.66107666 7.44277265 0.222082 4.43710561 -1 1 C-0.67 0.67 -0.34 0.34 0 0 Z " fill="#020405" transform="translate(69,165)"/>
<path d="M0 0 C-1.60143439 5.32456613 -4.00732977 10.04339333 -6.69726562 14.87695312 C-8.16601319 17.66482532 -9.03180335 19.55475305 -8.8046875 22.734375 C-7.77902947 25.62215002 -6.39340846 28.27376606 -5 31 C-5 31.66 -5 32.32 -5 33 C-5.7520874 33.02505615 -6.5041748 33.0501123 -7.27905273 33.07592773 C-10.66539196 33.19150514 -14.05142613 33.31440345 -17.4375 33.4375 C-18.62150391 33.47681641 -19.80550781 33.51613281 -21.02539062 33.55664062 C-22.15009766 33.59853516 -23.27480469 33.64042969 -24.43359375 33.68359375 C-25.47572021 33.72025146 -26.51784668 33.75690918 -27.59155273 33.79467773 C-29.9499826 33.73515341 -29.9499826 33.73515341 -31 35 C-33.66705187 35.54734274 -35.37324176 35.3915438 -37.69921875 33.93847656 C-39.68471232 32.38797119 -41.59619513 30.77479625 -43.5 29.125 C-44.91542092 27.93471496 -46.3321074 26.74593339 -47.75 25.55859375 C-48.81154297 24.66309814 -48.81154297 24.66309814 -49.89453125 23.74951172 C-53.0313804 21.14298795 -56.2552575 18.65755567 -59.5 16.1875 C-60.05751953 15.76162598 -60.61503906 15.33575195 -61.18945312 14.89697266 C-62.45809339 13.92929015 -63.72878369 12.96429594 -65 12 C-64.625 10.0625 -64.625 10.0625 -64 8 C-61.55982734 6.77991367 -59.57281716 6.64296343 -56.85546875 6.3515625 C-55.79569824 6.23474121 -54.73592773 6.11791992 -53.64404297 5.99755859 C-52.50338379 5.87461426 -51.36272461 5.75166992 -50.1875 5.625 C-39.91388407 4.48285496 -29.68586041 3.16208101 -19.4609375 1.6484375 C-12.94537753 0.69047333 -6.59755554 -0.13744907 0 0 Z " fill="#F6D069" transform="translate(161,47)"/>
<path d="M0 0 C0 3.19913581 -0.48279098 4.26682222 -1.96875 7.01171875 C-2.37480469 7.76904297 -2.78085938 8.52636719 -3.19921875 9.30664062 C-3.62847656 10.09232422 -4.05773437 10.87800781 -4.5 11.6875 C-4.92925781 12.48478516 -5.35851562 13.28207031 -5.80078125 14.10351562 C-6.86168088 16.07207383 -7.92824677 18.03733606 -9 20 C-7.94039062 19.33871094 -6.88078125 18.67742187 -5.7890625 17.99609375 C-4.40130068 17.14280777 -3.01326564 16.28996604 -1.625 15.4375 C-0.92632812 14.99986328 -0.22765625 14.56222656 0.4921875 14.11132812 C2.29185903 13.01249022 4.14322343 11.99932133 6 11 C6.99 11.495 6.99 11.495 8 12 C6.625 13.5 6.625 13.5 5 15 C4.34 15 3.68 15 3 15 C3 15.66 3 16.32 3 17 C-7.287828 23.32062636 -17.75101117 28.37383682 -29.0625 32.625 C-30.77336792 33.28121338 -30.77336792 33.28121338 -32.51879883 33.95068359 C-39.71839035 36.57495715 -46.18510236 38.59088723 -53.671875 36.1171875 C-58.44531057 33.2638933 -62.12225494 30.82718527 -65 26 C-65.80331871 22.78672517 -65.91487608 20.19634829 -65 17 C-62.11151284 13.3030504 -58.28696357 10.82702286 -54 9 C-51.34277344 8.68115234 -51.34277344 8.68115234 -48.359375 8.5859375 C-47.28945313 8.54726562 -46.21953125 8.50859375 -45.1171875 8.46875 C-44.00601563 8.4378125 -42.89484375 8.406875 -41.75 8.375 C-40.06003906 8.31699219 -40.06003906 8.31699219 -38.3359375 8.2578125 C-35.55745452 8.16362664 -32.77897666 8.07800414 -30 8 C-30.495 7.01 -30.495 7.01 -31 6 C-30.14019531 6.04640625 -29.28039062 6.0928125 -28.39453125 6.140625 C-18.13526768 6.45388496 -9.12553992 4.84657862 0 0 Z " fill="#252052" transform="translate(105,210)"/>
<path d="M0 0 C5.70035501 -0.4560284 8.54784247 0.39587248 13 4 C15.09873195 8.1974639 14.6674298 13.69162815 13.38671875 18.12109375 C9.80834163 25.95569034 2.79349521 34.22558173 -5 38 C-8.95840577 38.66839955 -12.83500968 38.58402632 -16.83984375 38.48828125 C-17.96193741 38.48120651 -19.08403107 38.47413177 -20.24012756 38.46684265 C-23.80661067 38.43896482 -27.37149536 38.37623449 -30.9375 38.3125 C-33.36260746 38.28740877 -35.78773964 38.26459706 -38.21289062 38.24414062 C-44.14246788 38.18915975 -50.07111972 38.10559835 -56 38 C-48.04447801 29.84537725 -40.56589381 26.95116215 -29.625 24 C-14.82199339 20.74204028 -14.82199339 20.74204028 -3.5 11.6875 C-1.90906532 7.77645224 -0.86855995 4.12565977 0 0 Z " fill="#C0ACF4" transform="translate(208,218)"/>
<path d="M0 0 C-0.53625 0.391875 -1.0725 0.78375 -1.625 1.1875 C-2.40875 1.785625 -3.1925 2.38375 -4 3 C-5.0725 3.70125 -6.145 4.4025 -7.25 5.125 C-10.09284951 8.09706994 -10.47407015 8.58929515 -10.6875 12.4375 C-10.38911205 16.18599868 -9.526798 18.89565371 -6.796875 21.65625 C1.9246499 28.17843384 12.09757653 29.48487225 22.6328125 30.41796875 C39.30897143 31.92711597 39.30897143 31.92711597 47 36 C47 36.33 47 36.66 47 37 C24.56 37 2.12 37 -21 37 C-29 21 -29 21 -29 13 C-27.16930618 8.62667589 -24.11329459 5.34240455 -20 3 C-13.36864941 0.65897469 -7.00702481 -0.40425143 0 0 Z " fill="#6C63A9" transform="translate(51,219)"/>
<path d="M0 0 C0.495 0.7425 0.99 1.485 1.5 2.25 C6.96972757 8.26670033 12.9530394 9.44827953 20.875 9.921875 C21.926875 9.96054688 21.926875 9.96054688 23 10 C22.01 10.66 21.02 11.32 20 12 C19.6089968 15.02448235 19.6089968 15.02448235 19.78515625 18.58984375 C19.80211044 19.24900284 19.81906464 19.90816193 19.83653259 20.58729553 C19.87710719 21.98885925 19.92555701 23.39021342 19.98120117 24.79125977 C20.0610062 26.89806457 20.10558129 29.00345567 20.14648438 31.11132812 C20.51364286 43.97778037 23.68818459 55.23734064 32.625 64.8125 C33.800625 65.8953125 33.800625 65.8953125 35 67 C35.515625 67.556875 36.03125 68.11375 36.5625 68.6875 C38.2346606 70.21425533 39.96761525 71.02329158 42 72 C41.09378906 72.04898438 40.18757813 72.09796875 39.25390625 72.1484375 C32.29098709 72.57579127 25.75578571 73.25281404 19 75 C11.06313848 63.07241317 6.81430322 54.06062217 6.90234375 39.6640625 C6.9037587 38.78471039 6.90517365 37.90535828 6.90663147 36.99935913 C6.91220123 34.20787058 6.9247481 31.41646406 6.9375 28.625 C6.94251891 26.72526158 6.94708113 24.8255219 6.95117188 22.92578125 C6.96216075 18.28382286 6.97940443 13.64192531 7 9 C6.37609375 8.86078125 5.7521875 8.7215625 5.109375 8.578125 C2.53121771 7.87151893 1.5521324 7.17298536 0 5 C-0.1875 2.3125 -0.1875 2.3125 0 0 Z " fill="#0150A2" transform="translate(10,146)"/>
<path d="M0 0 C0.05092721 6.40458765 0.08582866 12.80912259 0.10986328 19.21386719 C0.11988854 21.39031933 0.13351222 23.56675812 0.15087891 25.74316406 C0.17528028 28.88089303 0.18651813 32.01844308 0.1953125 35.15625 C0.20563507 36.12115356 0.21595764 37.08605713 0.22659302 38.0802002 C0.22888294 52.03163926 -5.23175041 64.99350042 -15 75 C-15.42410156 74.59007812 -15.84820312 74.18015625 -16.28515625 73.7578125 C-20.40909902 69.96922332 -23.50753777 68.12091066 -29 67 C-28.43732422 66.25556641 -28.43732422 66.25556641 -27.86328125 65.49609375 C-26.79103993 64.07274067 -25.72224793 62.64678496 -24.65625 61.21875 C-23.64181198 59.85978585 -22.62218983 58.50464889 -21.59375 57.15625 C-13.08197207 45.73801131 -12.68878681 33.11951592 -12.375 19.375 C-12.33672148 17.97523876 -12.29766443 16.57549858 -12.2578125 15.17578125 C-12.1642456 11.78398115 -12.07850192 8.39217656 -12 5 C-10.18854294 4.16440201 -8.37580533 3.33157951 -6.5625 2.5 C-5.55316406 2.0359375 -4.54382813 1.571875 -3.50390625 1.09375 C-1 0 -1 0 0 0 Z " fill="#014EA1" transform="translate(239,149)"/>
<path d="M0 0 C0.33 0 0.66 0 1 0 C0.57121732 6.68309563 -0.59880793 12.87988713 -2.37890625 19.3359375 C-3.15136603 22.19333809 -3.15136603 22.19333809 -3 26 C-1.88882813 25.52949219 -0.77765625 25.05898437 0.3671875 24.57421875 C21.32320383 15.77184347 21.32320383 15.77184347 29 16 C26.41097562 17.99316936 23.79836697 19.78764089 20.98828125 21.453125 C20.23426025 21.90437744 19.48023926 22.35562988 18.70336914 22.82055664 C17.91438232 23.29227295 17.12539551 23.76398926 16.3125 24.25 C10.48985078 27.76313604 4.88258177 31.31924051 -0.37109375 35.66015625 C-3.42531631 38.17238248 -6.46480526 39.68245871 -10.1015625 41.14453125 C-21.76965126 45.91070271 -33.23540141 50.89909616 -44.4375 56.6875 C-45.43539551 57.19708252 -46.43329102 57.70666504 -47.46142578 58.23168945 C-54.44365562 61.90324797 -60.73545953 66.21306815 -67 71 C-67 66.82289492 -64.77017068 64.86444351 -62 62 C-60.02043058 60.30911778 -58.02054804 58.64169528 -56 57 C-55.278125 56.236875 -54.55625 55.47375 -53.8125 54.6875 C-44.17441043 45.47776997 -19.84793671 27 -6 27 C-5.90203125 26.30777344 -5.8040625 25.61554688 -5.703125 24.90234375 C-4.40477241 16.40708844 -2.32401888 8.25816418 0 0 Z " fill="#211D4A" transform="translate(82,71)"/>
<path d="M0 0 C2.140625 1.8984375 2.140625 1.8984375 4.25 4.375 C5.01699219 5.26703125 5.78398438 6.1590625 6.57421875 7.078125 C7.37472656 8.04234375 8.17523438 9.0065625 9 10 C9.42490723 10.51111328 9.84981445 11.02222656 10.28759766 11.54882812 C12.88387829 14.6788594 15.45152271 17.8309715 18 21 C17 23 17 23 14.078125 24.1484375 C12.80463088 24.56515899 11.52836274 24.97346198 10.25 25.375 C9.57622314 25.59341553 8.90244629 25.81183105 8.20825195 26.03686523 C3.88357179 27.43069488 -0.46226997 28.75069047 -4.8125 30.0625 C-10.34510002 31.74008293 -15.67976873 33.74220434 -21 36 C-20.35699083 29.06979002 -19.15538869 22.41154509 -17.625 15.625 C-17.31175781 14.14966797 -17.31175781 14.14966797 -16.9921875 12.64453125 C-16.78078125 11.70222656 -16.569375 10.75992188 -16.3515625 9.7890625 C-16.16416504 8.94037598 -15.97676758 8.09168945 -15.78369141 7.21728516 C-14.39339392 3.28373943 -12.28228327 2.14636911 -8.625 0.25 C-4.82333211 -1.06091996 -3.69959606 -1.2407876 0 0 Z " fill="#6D63AB" transform="translate(99,62)"/>
<path d="M0 0 C6.93 0 13.86 0 21 0 C19.68 0.33 18.36 0.66 17 1 C23.35330718 15.65814216 31.61972213 26.34697658 46 34 C47.27423828 34.68835938 47.27423828 34.68835938 48.57421875 35.390625 C56.35164136 39.25027269 64.578019 41.10848858 73 43 C73 43.33 73 43.66 73 44 C53.8781991 44.71409215 35.66593482 40.4750478 20 29 C19.29359375 28.48953125 18.5871875 27.9790625 17.859375 27.453125 C8.79868339 20.24737813 3.60906971 10.82720914 0 0 Z " fill="#251E51" transform="translate(68,161)"/>
<path d="M0 0 C2.14774744 3.49551663 2.24304134 6.26750044 2.22705078 10.32910156 C2.22689972 11.61012756 2.22674866 12.89115356 2.22659302 14.21099854 C2.21638051 15.60420894 2.20594853 16.99741776 2.1953125 18.390625 C2.19158064 19.81980186 2.18873448 21.24898128 2.18673706 22.67816162 C2.17911419 26.43305571 2.15947739 30.18779419 2.1373291 33.94262695 C2.11684159 37.77683406 2.10772914 41.61106639 2.09765625 45.4453125 C2.07623012 52.96361248 2.04211056 60.4817844 2 68 C-0.70455027 66.04708653 -3.36005727 64.03929308 -6 62 C-6.97791504 61.24807373 -7.95583008 60.49614746 -8.96337891 59.72143555 C-11.95173519 55.72824357 -11.69305569 52.32303195 -11.5859375 47.45703125 C-11.57801178 46.53339279 -11.57008606 45.60975433 -11.56192017 44.65812683 C-11.53595775 42.70537615 -11.49645111 40.75276488 -11.44433594 38.80053711 C-11.37560261 35.83846948 -11.38075504 32.88263674 -11.390625 29.91992188 C-11.19779381 14.07204835 -11.19779381 14.07204835 -5.4765625 7.88671875 C-4.66525879 7.20182373 -3.85395508 6.51692871 -3.01806641 5.8112793 C-0.8410148 3.85730568 -0.35749424 2.85242352 0 0 Z " fill="#004DA1" transform="translate(237,55)"/>
<path d="M0 0 C2.25433614 5.56069582 2.59961828 11.0785651 3 17 C-2.75 20 -2.75 20 -5 20 C-5.33 21.98 -5.66 23.96 -6 26 C-6.495 24.02 -6.495 24.02 -7 22 C-7.69448242 22.18175781 -8.38896484 22.36351563 -9.10449219 22.55078125 C-12.31599142 23.38216837 -15.5327576 24.19113498 -18.75 25 C-19.84183594 25.28617188 -20.93367188 25.57234375 -22.05859375 25.8671875 C-29.50736394 27.71836116 -36.33331925 28.37449187 -44 28 C-43.84448242 25.71801758 -43.84448242 25.71801758 -43 23 C-40.63012695 21.18237305 -40.63012695 21.18237305 -37.48828125 19.51171875 C-36.34351318 18.89111572 -35.19874512 18.2705127 -34.01928711 17.63110352 C-32.78387059 16.98289406 -31.54827179 16.33503191 -30.3125 15.6875 C-29.07011351 15.02118364 -27.82865634 14.35313159 -26.58813477 13.68334961 C-24.15817794 12.37260121 -21.72452292 11.06916533 -19.28808594 9.77050781 C-14.22219302 7.04271932 -9.26750847 4.1385724 -4.30859375 1.22265625 C-2 0 -2 0 0 0 Z " fill="#231F4E" transform="translate(90,45)"/>
<path d="M0 0 C-1.60143439 5.32456613 -4.00732977 10.04339333 -6.69726562 14.87695312 C-8.16601319 17.66482532 -9.03180335 19.55475305 -8.8046875 22.734375 C-7.77902947 25.62215002 -6.39340846 28.27376606 -5 31 C-5 31.66 -5 32.32 -5 33 C-22.86861605 34.31517061 -22.86861605 34.31517061 -27.88671875 31.21875 C-29.57153166 29.21251576 -30.88109678 27.36447474 -32 25 C-28.08087178 25 -26.95856266 26.5724614 -24 29 C-23.34 29 -22.68 29 -22 29 C-18.7 22.4 -15.4 15.8 -12 9 C-14.660625 9.2165625 -14.660625 9.2165625 -17.375 9.4375 C-19.21156265 9.57099464 -21.04813048 9.70442048 -22.88476562 9.83691406 C-25.18048199 10.01391528 -27.47244963 10.22247286 -29.765625 10.4296875 C-31.38534419 10.55820834 -33.00513576 10.68582041 -34.625 10.8125 C-35.79748291 10.92839478 -35.79748291 10.92839478 -36.99365234 11.04663086 C-39.2265625 11.20703125 -39.2265625 11.20703125 -43 11 C-45.0234375 9.13671875 -45.0234375 9.13671875 -46 7 C-46 6.34 -46 5.68 -46 5 C-40.57471387 4.28217764 -35.14869305 3.57029249 -29.72192383 2.86376953 C-27.87796281 2.62286625 -26.03420854 2.3803747 -24.19067383 2.13623047 C-21.53259909 1.78450035 -18.87382006 1.43859002 -16.21484375 1.09375 C-14.98942116 0.92969666 -14.98942116 0.92969666 -13.73924255 0.7623291 C-9.11467756 0.16903441 -4.6624982 -0.10900054 0 0 Z " fill="#F6F098" transform="translate(161,47)"/>
<path d="M0 0 C15.18 0 30.36 0 46 0 C45.01 1.65 44.02 3.3 43 5 C42.57710693 5.72703125 42.15421387 6.4540625 41.71850586 7.203125 C39.08456592 10.94409611 37.17603548 12.74436228 32.62158203 13.734375 C28.57961902 14.01196973 24.609799 14.05951216 20.5625 14 C19.14906318 14.00810178 17.73564211 14.01978813 16.32226562 14.03515625 C12.88071336 14.06483524 9.44147165 14.04578032 6 14 C4.99515796 12.04414675 3.99626195 10.08523763 3 8.125 C2.1646875 6.48917969 2.1646875 6.48917969 1.3125 4.8203125 C0 2 0 2 0 0 Z " fill="#004EA2" transform="translate(127,18)"/>
<path d="M0 0 C0.33 0 0.66 0 1 0 C1 13.2 1 26.4 1 40 C-2.98889091 38.40444364 -5.40549001 37.15216341 -8.75 34.6875 C-13.32210982 31.40601578 -18.01915184 28.61073442 -23 26 C-22.360625 25.38125 -21.72125 24.7625 -21.0625 24.125 C-14.14159458 17.18459907 -7.85692508 9.70954845 -1.75 2.0546875 C-0.88375 1.03761719 -0.88375 1.03761719 0 0 Z " fill="#00B5DD" transform="translate(225,71)"/>
<path d="M0 0 C2 1 2 1 2.89453125 3.22265625 C3.19746094 4.15980469 3.50039063 5.09695312 3.8125 6.0625 C6.50463724 13.75004746 9.97932887 19.45464501 16 25 C16.515625 25.556875 17.03125 26.11375 17.5625 26.6875 C19.2346606 28.21425533 20.96761525 29.02329158 23 30 C22.09378906 30.04898438 21.18757813 30.09796875 20.25390625 30.1484375 C13.29098709 30.57579127 6.75578571 31.25281404 0 33 C-10.21042583 17.53050552 -10.21042583 17.53050552 -9.84765625 13.16796875 C-8.61687752 10.02012453 -6.61194102 7.82257811 -4.4375 5.25 C-3.19806641 3.77273437 -3.19806641 3.77273437 -1.93359375 2.265625 C-1.29550781 1.51796875 -0.65742188 0.7703125 0 0 Z " fill="#0078D9" transform="translate(29,188)"/>
<path d="M0 0 C7.88884963 7.35097352 12.31526606 16.10633639 16.86523438 25.72021484 C17.70615258 27.4711996 18.5940995 29.19936862 19.484375 30.92578125 C20.75 33.5625 20.75 33.5625 20.75 35.5625 C21.74 35.418125 22.73 35.27375 23.75 35.125 C30.43866708 34.17540055 36.97670653 33.28603904 43.75 33.5625 C42.10545669 39.20963551 39.43056283 43.91184876 36.40820312 48.90820312 C33.81030705 53.49577642 33.31399417 56.28502709 34.75 61.5625 C35.72326903 64.92145167 35.72326903 64.92145167 37.75 67.5625 C40.87442099 68.84018051 40.87442099 68.84018051 44.625 69.375 C61.93567751 72.97321944 77.61524719 81.71079475 92.75 90.5625 C91.76 91.2225 90.77 91.8825 89.75 92.5625 C88.86441406 92.005625 87.97882813 91.44875 87.06640625 90.875 C75.07067205 83.43554316 63.17569228 76.76219446 49.37597656 73.43212891 C37.84867923 70.63732947 37.84867923 70.63732947 34.05078125 66.921875 C31.2601219 62.05610999 30.37471012 59.00760842 31.75 53.5625 C32.68969727 51.3425293 32.68969727 51.3425293 33.81640625 49.13671875 C34.4206543 47.94272461 34.4206543 47.94272461 35.03710938 46.72460938 C35.45798828 45.90798828 35.87886719 45.09136719 36.3125 44.25 C36.73724609 43.41404297 37.16199219 42.57808594 37.59960938 41.71679688 C38.6443479 39.66253574 39.69459762 37.61129708 40.75 35.5625 C39.73679687 35.706875 38.72359375 35.85125 37.6796875 36 C36.32815455 36.18771291 34.97659036 36.37520096 33.625 36.5625 C32.95984375 36.65789063 32.2946875 36.75328125 31.609375 36.8515625 C27.61725887 37.39950001 23.77400605 37.60239101 19.75 37.5625 C19.35208252 36.74571777 18.95416504 35.92893555 18.54418945 35.08740234 C17.05044448 32.03135416 15.54932444 28.97916002 14.04321289 25.92919922 C13.39540681 24.61359006 12.75049156 23.29655305 12.10864258 21.97802734 C11.18043915 20.07257788 10.24162938 18.17266927 9.30078125 16.2734375 C8.74044189 15.13181152 8.18010254 13.99018555 7.6027832 12.81396484 C4.38712089 7.17077197 1.05624658 2.83274877 -5.25 0.5625 C-12.45367026 -0.73416065 -18.30922819 2.84504953 -24.25 6.5625 C-28.26680437 9.55442591 -31.98665315 12.89169434 -35.72119141 16.22363281 C-37.91714242 18.14675567 -40.20952852 19.94118591 -42.5 21.75 C-48.3224875 26.47648985 -53.72886049 31.62488024 -59.14941406 36.8034668 C-62.94178519 40.42220595 -66.77360488 43.93261711 -70.81347656 47.27441406 C-72.91944288 49.16276863 -74.17807746 50.94968882 -75.25 53.5625 C-74.99662339 56.28629855 -74.4677024 58.1270952 -73.25 60.5625 C-74.57 59.9025 -75.89 59.2425 -77.25 58.5625 C-77.80366694 55.73264677 -77.95295954 54.31534856 -77.25 51.5625 C-72.79155641 45.15414609 -66.68524712 39.9685593 -60.84765625 34.84375 C-58.13006571 32.45717425 -55.47180391 30.01375026 -52.8125 27.5625 C-48.32707512 23.48082644 -43.72603806 19.58868969 -39 15.7890625 C-37.1461184 14.28805041 -35.31291238 12.7611836 -33.5 11.2109375 C-23.80922203 2.97928235 -13.14072751 -5.81224486 0 0 Z " fill="#071119" transform="translate(120.25,11.4375)"/>
<path d="M0 0 C9.22586644 -0.20786348 18.15730726 0.38876283 27.3125 1.5 C28.54162109 1.64308594 29.77074219 1.78617188 31.03710938 1.93359375 C34.02558604 2.28244317 37.01309413 2.6379897 40 3 C39.67 3.66 39.34 4.32 39 5 C38.12859375 4.83757812 37.2571875 4.67515625 36.359375 4.5078125 C29.50958752 3.70769378 29.50958752 3.70769378 23.28808594 6.21289062 C19.86887704 9.51376625 17.07675886 13.30553558 14.32226562 17.16552734 C12.44965238 19.76353619 10.41057461 22.21625385 8.375 24.6875 C6.46496827 27.08511367 4.70246027 29.4463096 3 32 C3 21.77 3 11.54 3 1 C2.01 0.67 1.02 0.34 0 0 Z " fill="#0DB6DA" transform="translate(27,157)"/>
<path d="M0 0 C1.32451172 0.01353516 1.32451172 0.01353516 2.67578125 0.02734375 C3.67158203 0.04474609 3.67158203 0.04474609 4.6875 0.0625 C2.6875 3.0625 2.6875 3.0625 -0.69140625 3.8359375 C-2.08491594 4.0434387 -3.47953674 4.24357142 -4.875 4.4375 C-11.53049355 5.52377851 -16.74890454 7.09364203 -22.3125 11.0625 C-23.34375 11.743125 -24.375 12.42375 -25.4375 13.125 C-32.56719009 19.45807667 -36.29886023 28.78906593 -37.3125 38.0625 C-37.46976563 39.27550781 -37.62703125 40.48851562 -37.7890625 41.73828125 C-38.64141925 49.48225417 -38.91315028 57.28454023 -39.3125 65.0625 C-40.29627455 84.22304654 -40.29627455 84.22304654 -41.3125 92.0625 C-41.6425 92.0625 -41.9725 92.0625 -42.3125 92.0625 C-42.40576839 84.82071738 -42.47654967 77.57906728 -42.51974869 70.33680248 C-42.54049721 66.97277075 -42.56857591 63.6091542 -42.61425781 60.24536133 C-42.66312704 56.36528844 -42.68555005 52.48579474 -42.703125 48.60546875 C-42.72377014 47.41543747 -42.74441528 46.22540619 -42.76568604 44.99931335 C-42.76891472 32.81280081 -39.38078299 24.1306984 -31.3125 15.0625 C-30.81234375 14.44632813 -30.3121875 13.83015625 -29.796875 13.1953125 C-22.50909855 4.91374835 -10.94733285 -0.14596444 0 0 Z " fill="#C4D1D2" transform="translate(72.3125,30.9375)"/>
<path d="M0 0 C4.57691551 0.46409283 6.30332422 1.91538436 9.25 5.375 C10.01699219 6.26703125 10.78398438 7.1590625 11.57421875 8.078125 C12.37472656 9.04234375 13.17523438 10.0065625 14 11 C14.42490723 11.51111328 14.84981445 12.02222656 15.28759766 12.54882812 C17.88387829 15.6788594 20.45152271 18.8309715 23 22 C22 24 22 24 19.19921875 25.0703125 C18.04035156 25.41835937 16.88148437 25.76640625 15.6875 26.125 C13.96080078 26.65480469 13.96080078 26.65480469 12.19921875 27.1953125 C9 28 9 28 5 28 C4.15808127 24.27271829 3.3279832 20.54289997 2.5 16.8125 C2.26152344 15.75740234 2.02304688 14.70230469 1.77734375 13.61523438 C1.55175781 12.59365234 1.32617188 11.57207031 1.09375 10.51953125 C0.77954102 9.11344604 0.77954102 9.11344604 0.45898438 7.67895508 C0.01032912 5.06028801 -0.08407959 2.65060917 0 0 Z " fill="#BEACF5" transform="translate(94,61)"/>
<path d="M0 0 C9.24 0 18.48 0 28 0 C25.62442101 3.95929831 23.49484785 6.88540632 20.4375 10.25 C19.65246094 11.12140625 18.86742187 11.9928125 18.05859375 12.890625 C15.21105655 15.80840506 14.54915877 15.99053175 10.375 16.0625 C9.26125 16.041875 8.1475 16.02125 7 16 C5.82845707 13.71070947 4.66261926 11.41881638 3.5 9.125 C3.16613281 8.47402344 2.83226562 7.82304688 2.48828125 7.15234375 C0 2.2265625 0 2.2265625 0 0 Z " fill="#00B5DD" transform="translate(134,31)"/>
<path d="M0 0 C1.24974609 0.13212891 2.49949219 0.26425781 3.78710938 0.40039062 C11.21437289 1.27854842 17.67987876 2.83443707 24.4375 6.0625 C24.4375 6.3925 24.4375 6.7225 24.4375 7.0625 C6.9475 7.0625 -10.5425 7.0625 -28.5625 7.0625 C-20.13562678 -1.36437322 -11.26734208 -1.5096956 0 0 Z " fill="#C0ACF5" transform="translate(73.5625,248.9375)"/>
<path d="M0 0 C0.66 0 1.32 0 2 0 C2.07473903 4.81970922 2.12887722 9.63907335 2.16479492 14.45922852 C2.17978456 16.09535609 2.20018332 17.73144415 2.22631836 19.36743164 C2.48767858 36.16110704 2.48767858 36.16110704 -1 44 C-1.36480469 44.8353125 -1.72960937 45.670625 -2.10546875 46.53125 C-5.22308596 52.20373763 -8.9080154 57.92062598 -14 62 C-16.75 62.24609375 -16.75 62.24609375 -19 62 C-17.9790625 61.071875 -17.9790625 61.071875 -16.9375 60.125 C-7.77265854 50.93404788 -3.27254147 40.9547065 -2.5 28.125 C-2.4175 26.81015625 -2.335 25.4953125 -2.25 24.140625 C-2.16627317 22.76044048 -2.08294351 21.38023181 -2 20 C-1.83722887 17.29138659 -1.66992558 14.5831889 -1.5 11.875 C-1.4278125 10.67617187 -1.355625 9.47734375 -1.28125 8.2421875 C-1.03629863 5.41844258 -0.62507895 2.76076538 0 0 Z " fill="#CAD2D2" transform="translate(224,154)"/>
<path d="M0 0 C9.67720619 -0.34561451 19.67123693 1.8428299 28 7 C28.91015625 9.60546875 28.91015625 9.60546875 29 12 C28 13 28 13 25.046875 13.2734375 C20.09938215 13.20016003 15.80953679 11.40089377 11.25 9.625 C10.40050781 9.30789062 9.55101563 8.99078125 8.67578125 8.6640625 C5.14579396 7.32567869 2.15922531 6.10615021 -1 4 C-0.67 2.68 -0.34 1.36 0 0 Z " fill="#E9E6DD" transform="translate(107,124)"/>
<path d="M0 0 C4.55480736 3.64384588 5.70715861 4.66575138 7.8125 9.625 C8.23144531 10.58664063 8.65039062 11.54828125 9.08203125 12.5390625 C10 15 10 15 10 17 C-7.86861605 18.31517061 -7.86861605 18.31517061 -12.88671875 15.21875 C-14.57153166 13.21251576 -15.88109678 11.36447474 -17 9 C-13.08087178 9 -11.95856266 10.5724614 -9 13 C-8.34 13 -7.68 13 -7 13 C-3.535 6.565 -3.535 6.565 0 0 Z " fill="#F8F399" transform="translate(146,63)"/>
<path d="M0 0 C2 1 2 1 4.20703125 3.23046875 C7.20317943 6.20147443 10.35048477 8.74344786 13.6875 11.3125 C14.92322269 12.27728534 16.15889941 13.24212956 17.39453125 14.20703125 C19.6330096 15.94608813 21.88075388 17.67016267 24.13671875 19.38671875 C25.04035156 20.08410156 25.94398437 20.78148438 26.875 21.5 C28.07769531 22.41265625 28.07769531 22.41265625 29.3046875 23.34375 C29.86414063 23.8903125 30.42359375 24.436875 31 25 C31 25.99 31 26.98 31 28 C28.3620062 28.47686811 26.59612023 28.37018246 24.296875 26.94238281 C22.31564466 25.38766734 20.40323683 23.774304 18.5 22.125 C17.08457908 20.93471496 15.6678926 19.74593339 14.25 18.55859375 C13.18845703 17.66309814 13.18845703 17.66309814 12.10546875 16.74951172 C8.9686196 14.14298795 5.7447425 11.65755567 2.5 9.1875 C1.94248047 8.76162598 1.38496094 8.33575195 0.81054688 7.89697266 C-0.45809339 6.92929015 -1.72878369 5.96429594 -3 5 C-2.625 3.0625 -2.625 3.0625 -2 1 C-1.34 0.67 -0.68 0.34 0 0 Z " fill="#DE8A48" transform="translate(99,54)"/>
<path d="M0 0 C-0.66 1.65 -1.32 3.3 -2 5 C-4.475 4.505 -4.475 4.505 -7 4 C-7.433125 5.4540625 -7.433125 5.4540625 -7.875 6.9375 C-9 10 -9 10 -11 11 C-11.9765625 9.20963542 -12.953125 7.41927083 -13.9296875 5.62890625 C-14.91410024 3.83381685 -14.91410024 3.83381685 -17 3 C-17 6.3 -17 9.6 -17 13 C-17.33 13 -17.66 13 -18 13 C-18 10.69 -18 8.38 -18 6 C-18.66 6 -19.32 6 -20 6 C-20 8.97 -20 11.94 -20 15 C-30.92857143 9.21428571 -30.92857143 9.21428571 -33 3 C-28.62561293 2.49453917 -24.25040173 1.99659468 -19.875 1.5 C-18.6375 1.35691406 -17.4 1.21382812 -16.125 1.06640625 C-14.92617187 0.93105469 -13.72734375 0.79570313 -12.4921875 0.65625 C-10.84259033 0.46772461 -10.84259033 0.46772461 -9.15966797 0.27539062 C-6.08768155 0.00764216 -3.08177181 -0.04872366 0 0 Z " fill="#71636B" transform="translate(150,55)"/>
<path d="M0 0 C0.33 1.32 0.66 2.64 1 4 C-1.8859723 5.68419305 -4.7852118 7.34410697 -7.6875 9 C-8.91243164 9.71542969 -8.91243164 9.71542969 -10.16210938 10.4453125 C-10.95810547 10.89648438 -11.75410156 11.34765625 -12.57421875 11.8125 C-13.30213623 12.23144531 -14.03005371 12.65039062 -14.7800293 13.08203125 C-17.33372919 14.13799865 -19.26261386 14.16832505 -22 14 C-22.33 12.35 -22.66 10.7 -23 9 C-16.35405198 3.68324158 -8.72432581 -0.42519277 0 0 Z " fill="#ECE9E0" transform="translate(186,123)"/>
<path d="M0 0 C3.99996286 1.33332095 4.83782337 3.4957827 7 7 C7.99 5.02 8.98 3.04 10 1 C11.32 1 12.64 1 14 1 C13.39733215 5.50727647 11.63400206 8.8587963 9.4375 12.8125 C8.9434668 13.7087207 8.9434668 13.7087207 8.43945312 14.62304688 C7.63226733 16.08533998 6.81695083 17.5431399 6 19 C2.11664917 17.58902801 0.23919006 16.53556325 -2 13 C-1.34 13 -0.68 13 0 13 C0 8.71 0 4.42 0 0 Z " fill="#E38D4C" transform="translate(133,58)"/>
<path d="M0 0 C6.6 0 13.2 0 20 0 C18.40278204 1.06481197 16.79520964 2.11824715 15.1328125 3.078125 C7.81262045 7.35061063 4.01651047 12.06181455 1 20 C0.67 20 0.34 20 0 20 C0 13.4 0 6.8 0 0 Z " fill="#00000B" transform="translate(0,0)"/>
<path d="M0 0 C1.50559539 1.96382007 2.89131683 3.78263366 4 6 C8.5511381 10.60663979 12.8949963 13.83781119 19 16 C19 16.33 19 16.66 19 17 C12.4 17 5.8 17 -1 17 C-1.020625 14.56625 -1.04125 12.1325 -1.0625 9.625 C-1.071604 8.86010254 -1.08070801 8.09520508 -1.09008789 7.30712891 C-1.11111111 2.22222222 -1.11111111 2.22222222 0 0 Z " fill="#000007" transform="translate(1,239)"/>
<path d="M0 0 C6.6 0 13.2 0 20 0 C20 6.27 20 12.54 20 19 C18 15 18 15 17 12 C11.92065962 7.17365359 6.625813 3.30463061 0 1 C0 0.67 0 0.34 0 0 Z " fill="#000009" transform="translate(236,0)"/>
<path d="M0 0 C4.07180778 1.73354193 7.33138273 4.50193303 10.75 7.25 C15.3235985 10.90316329 19.91272062 14.4673062 24.7421875 17.78125 C25.15726563 18.1834375 25.57234375 18.585625 26 19 C26 19.99 26 20.98 26 22 C23.36 22.66 20.72 23.32 18 24 C17.70416016 22.9790625 17.70416016 22.9790625 17.40234375 21.9375 C15.47990258 17.91054803 12.66016554 15.16875951 9.5625 12 C5.87758506 8.20563214 2.49566299 4.72297511 0 0 Z " fill="#6C609F" transform="translate(98,61)"/>
<path d="M0 0 C0.33 0 0.66 0 1 0 C1 4.95 1 9.9 1 15 C-5.6 15 -12.2 15 -19 15 C-16.67134937 13.44756625 -14.63740574 12.33616799 -12.125 11.1875 C-6.78073348 8.54968772 -3.50450361 4.73107987 0 0 Z " fill="#000005" transform="translate(255,241)"/>
<path d="M0 0 C0.66 0.33 1.32 0.66 2 1 C0.82009775 1.80294647 -0.36945689 2.59171174 -1.5625 3.375 C-2.22378906 3.81585938 -2.88507813 4.25671875 -3.56640625 4.7109375 C-6 6 -6 6 -13 8 C-13 17.9 -13 27.8 -13 38 C-13.33 38 -13.66 38 -14 38 C-14 28.1 -14 18.2 -14 8 C-14.66 8 -15.32 8 -16 8 C-16 9.65 -16 11.3 -16 13 C-16.33 11.68 -16.66 10.36 -17 9 C-17.71285156 9.2165625 -18.42570312 9.433125 -19.16015625 9.65625 C-24.61820717 11.24297813 -29.31558966 12.37896069 -35 12 C-35 11.01 -35 10.02 -35 9 C-34.04915527 8.85751831 -34.04915527 8.85751831 -33.07910156 8.7121582 C-17.07951542 6.41057195 -17.07951542 6.41057195 -2.01171875 0.85546875 C-1.34785156 0.57316406 -0.68398437 0.29085937 0 0 Z " fill="#49A0C0" transform="translate(240,146)"/>
<path d="M0 0 C2.0703125 -0.1328125 2.0703125 -0.1328125 5.6953125 0.2421875 C8.1953125 2.7421875 8.1953125 2.7421875 9.6953125 5.2421875 C7.50248027 7.43501973 2.85733196 6.84644811 -0.1796875 7.0546875 C-1.00855469 7.13138672 -1.83742188 7.20808594 -2.69140625 7.28710938 C-4.96075324 7.43925461 -7.04795307 7.52987807 -9.3046875 7.2421875 C-11.375 5.37890625 -11.375 5.37890625 -12.3046875 3.2421875 C-12.3046875 2.5821875 -12.3046875 1.9221875 -12.3046875 1.2421875 C-8.20774465 0.77204652 -4.10065022 0.43091579 0 0 Z " fill="#F7F198" transform="translate(127.3046875,50.7578125)"/>
<path d="M0 0 C1.96293766 1.96293766 2.68347281 3.27094455 3.8125 5.75 C5.1961508 8.62172808 6.65835544 10.96931249 8.75 13.375 C11 16 11 16 11 18 C11.59039062 18.26425781 12.18078125 18.52851563 12.7890625 18.80078125 C15.07565275 20.04103427 16.53206083 21.36540855 18.375 23.1875 C26.0594031 30.06755436 36.20340711 34.12858484 46 37 C41.375 41 41.375 41 38 41 C38.99 39.68 39.98 38.36 41 37 C39.96552734 36.84337891 39.96552734 36.84337891 38.91015625 36.68359375 C24.38588491 33.27185216 11.77858044 22.59341607 3.55859375 10.5625 C1.66107666 7.44277265 0.222082 4.43710561 -1 1 C-0.67 0.67 -0.34 0.34 0 0 Z " fill="#05181F" transform="translate(69,165)"/>
<path d="M0 0 C4.75 1.875 4.75 1.875 7 3 C5.68938409 7.23429756 4.05643741 11.07407404 2 15 C-1.16115776 13.63016497 -1.9927092 13.0109362 -4 10 C-3.484375 9.05125 -2.96875 8.1025 -2.4375 7.125 C-1.963125 6.09375 -1.48875 5.0625 -1 4 C-1.33 3.34 -1.66 2.68 -2 2 C-1.34 2 -0.68 2 0 2 C0 1.34 0 0.68 0 0 Z " fill="#F4EE97" transform="translate(150,52)"/>
<path d="M0 0 C-0.66 1.65 -1.32 3.3 -2 5 C-3.65 4.67 -5.3 4.34 -7 4 C-7.28875 4.969375 -7.5775 5.93875 -7.875 6.9375 C-9 10 -9 10 -11 11 C-14.22265625 5.82421875 -14.22265625 5.82421875 -15 4 C-14.67 3.01 -14.34 2.02 -14 1 C-9.27616037 0.34843591 -4.78025483 -0.11950637 0 0 Z " fill="#625889" transform="translate(150,55)"/>
<path d="M0 0 C1.03040167 2.28779038 2.04952018 4.57951136 3.0625 6.875 C3.35705078 7.52597656 3.65160156 8.17695313 3.95507812 8.84765625 C4.69661513 10.54010541 5.35439001 12.26868575 6 14 C5.67 14.66 5.34 15.32 5 16 C2.69 12.37 0.38 8.74 -2 5 C-7.36113145 6.59384989 -12.70726908 8.1893289 -18 10 C-15.3137382 6.87084199 -12.04608071 5.2357324 -8.4375 3.3125 C-7.28121094 2.68988281 -6.12492187 2.06726563 -4.93359375 1.42578125 C-2 0 -2 0 0 0 Z " fill="#B3A1E8" transform="translate(126,218)"/>
<path d="M0 0 C2.74792483 3.40219265 6 7.48464588 6 12 C2.37 12 -1.26 12 -5 12 C-3.68938409 7.76570244 -2.05643741 3.92592596 0 0 Z " fill="#B8A6E8" transform="translate(150,68)"/>
<path d="M0 0 C-1.875 5.75 -1.875 5.75 -3 8 C-6.01217112 7.35550393 -8.51655836 6.34977818 -11.25 4.9375 C-11.95640625 4.57527344 -12.6628125 4.21304688 -13.390625 3.83984375 C-13.92171875 3.56269531 -14.4528125 3.28554688 -15 3 C-15 2.34 -15 1.68 -15 1 C-9.92928099 0.28832014 -5.11791642 -0.10662326 0 0 Z " fill="#EAC766" transform="translate(161,47)"/>
<path d="M0 0 C3 1 3 1 4.6875 2.9375 C6.55449986 7.29383301 6.24502682 11.3263402 6 16 C5.01 16 4.02 16 3 16 C-0.39366878 10.62669111 -0.32712342 6.13053511 0 0 Z " fill="#F8EA71" transform="translate(133,58)"/>
<path d="M0 0 C1.91302307 3.26613695 2.35674661 5.99445248 2.625 9.75 C2.69976562 10.73484375 2.77453125 11.7196875 2.8515625 12.734375 C2.92503906 13.85585938 2.92503906 13.85585938 3 15 C-0.465 16.485 -0.465 16.485 -4 18 C-3.48914188 11.56318772 -2.27057103 6.04057576 0 0 Z " fill="#282154" transform="translate(90,47)"/>
<path d="M0 0 C5.46737191 1.74807129 10.75824848 3.65794081 16 6 C11.38182791 7.5393907 7.71760993 6.04155025 3 5 C1.68 8.3 0.36 11.6 -1 15 C-1.87892443 11.48430228 -2.05076659 9.81565435 -1.625 6.375 C-1.53476563 5.59898437 -1.44453125 4.82296875 -1.3515625 4.0234375 C-1 2 -1 2 0 0 Z " fill="#B4A2EA" transform="translate(154,218)"/>
<path d="M0 0 C2.05078125 0.03255208 4.1015625 0.06510417 6.15234375 0.09765625 C6.15234375 3.06765625 6.15234375 6.03765625 6.15234375 9.09765625 C3.33984375 8.47265625 3.33984375 8.47265625 0.15234375 7.09765625 C-1.72265625 3.97265625 -1.72265625 3.97265625 -2.84765625 1.09765625 C-1.84765625 0.09765625 -1.84765625 0.09765625 0 0 Z " fill="#8E7FBD" transform="translate(122.84765625,58.90234375)"/>
<path d="M0 0 C-1.64566523 5.68502535 -4.29032784 10.76681636 -7 16 C-7.66 15.34 -8.32 14.68 -9 14 C-7.02 10.04 -5.04 6.08 -3 2 C-6.3203125 2.48828125 -6.3203125 2.48828125 -9.640625 2.9765625 C-12.32152459 3.00319395 -13.72694089 2.36592084 -16 1 C-10.59255982 0.22750855 -5.46137814 -0.09752461 0 0 Z " fill="#0D2624" transform="translate(164,45)"/>
<path d="M0 0 C3.96 1.98 3.96 1.98 8 4 C8 4.66 8 5.32 8 6 C8.99 6.33 9.98 6.66 11 7 C12.1875 10.0625 12.1875 10.0625 13 13 C6.6975651 10.4821538 3.47531078 7.86458694 0 2 C0 1.34 0 0.68 0 0 Z " fill="#7566A9" transform="translate(170,207)"/>
<path d="M0 0 C-2 3 -2 3 -5.2578125 3.73046875 C-6.53398438 3.88128906 -7.81015625 4.03210937 -9.125 4.1875 C-10.40632813 4.34605469 -11.68765625 4.50460938 -13.0078125 4.66796875 C-14.48894531 4.83232422 -14.48894531 4.83232422 -16 5 C-16 4.34 -16 3.68 -16 3 C-16.66 2.67 -17.32 2.34 -18 2 C-11.84629161 0.176679 -6.40353322 -0.2361959 0 0 Z " fill="#C2C9CA" transform="translate(77,31)"/>
<path d="M0 0 C0.66 0.66 1.32 1.32 2 2 C-7.54050153 7.05646581 -15.09750955 10.38937466 -26 10 C-22.63145857 7.75430571 -20.27233187 7.35275289 -16.3125 6.625 C-7.45980756 4.87145919 -7.45980756 4.87145919 0 0 Z " fill="#06171E" transform="translate(106,207)"/>
<path d="M0 0 C1.13817003 4.5526801 0.33208488 7.40300712 -0.9375 11.75 C-1.13279297 12.44738281 -1.32808594 13.14476563 -1.52929688 13.86328125 C-2.0108246 15.57798973 -2.50425157 17.28934877 -3 19 C-3.33 17.68 -3.66 16.36 -4 15 C-4.59167969 15.144375 -5.18335937 15.28875 -5.79296875 15.4375 C-9.92529941 16.40822694 -13.7229762 17.27593702 -18 17 C-15.3851183 15.25674553 -13.9946567 14.58412043 -11.0625 13.875 C-10.39347656 13.70742187 -9.72445312 13.53984375 -9.03515625 13.3671875 C-7 13 -7 13 -3 13 C-2.01 8.71 -1.02 4.42 0 0 Z " fill="#0C0D1C" transform="translate(87,52)"/>
<path d="M0 0 C-1 2 -1 2 -2.8203125 2.6328125 C-7.66261668 3.6669317 -12.04952534 4.2106585 -17 4 C-17 3.01 -17 2.02 -17 1 C-11.29309366 0.00749455 -5.78591511 -0.10477512 0 0 Z " fill="#4FC3D3" transform="translate(222,154)"/>
<path d="M0 0 C3.2826932 1.49076434 5.93077441 3.38620321 8.75 5.625 C9.94882813 6.57246094 9.94882813 6.57246094 11.171875 7.5390625 C11.77515625 8.02117187 12.3784375 8.50328125 13 9 C12.01 9.495 12.01 9.495 11 10 C10.67 10.66 10.34 11.32 10 12 C6.08552441 8.27856704 2.50346649 4.85967024 0 0 Z " fill="#68598B" transform="translate(98,61)"/>
<path d="M0 0 C0.33 0 0.66 0 1 0 C2.25 7.625 2.25 7.625 0 11 C-3.91402949 9.73058503 -5.79072873 8.48832306 -8 5 C-7.34 5 -6.68 5 -6 5 C-5.67 4.01 -5.34 3.02 -5 2 C-4.01 3.98 -3.02 5.96 -2 8 C-1.67 8 -1.34 8 -1 8 C-0.67 5.36 -0.34 2.72 0 0 Z " fill="#9F753E" transform="translate(139,66)"/>
<path d="M0 0 C7.39219713 -0.49281314 7.39219713 -0.49281314 10.3125 1.875 C10.869375 2.57625 11.42625 3.2775 12 4 C12.99 4.66 13.98 5.32 15 6 C11.75 6.25 11.75 6.25 8 6 C5.8125 4.125 5.8125 4.125 4 2 C1.86690808 0.76487921 1.86690808 0.76487921 0 0 Z " fill="#E4C264" transform="translate(129,50)"/>
<path d="M0 0 C0.495 0.7425 0.99 1.485 1.5 2.25 C4.62295503 5.68525053 7.82581222 7.1330293 12 9 C13.33610526 9.66109375 14.67024753 10.32621917 16 11 C9.40138556 10.58309408 4.84750296 9.84750296 0 5 C-0.125 2.375 -0.125 2.375 0 0 Z " fill="#53BDCC" transform="translate(10,146)"/>
<path d="M0 0 C4.27454425 2.7479213 8.14126153 5.69250989 12 9 C8.27792613 9 6.53604411 7.82035432 3.3125 6 C2.31863281 5.443125 1.32476562 4.88625 0.30078125 4.3125 C-0.45847656 3.879375 -1.21773437 3.44625 -2 3 C-1.34 2.01 -0.68 1.02 0 0 Z " fill="#3D3670" transform="translate(212,105)"/>
<path d="M0 0 C0.66 0.33 1.32 0.66 2 1 C1.38511719 1.53109375 0.77023438 2.0621875 0.13671875 2.609375 C-0.67152344 3.31578125 -1.47976562 4.0221875 -2.3125 4.75 C-3.11300781 5.44609375 -3.91351563 6.1421875 -4.73828125 6.859375 C-7.03284426 8.90435465 -7.03284426 8.90435465 -8.66796875 11.265625 C-9.10753906 11.83796875 -9.54710937 12.4103125 -10 13 C-10.66 13 -11.32 13 -12 13 C-10.44997253 9.11602311 -7.99523379 6.97020381 -4.875 4.25 C-3.96492188 3.45078125 -3.05484375 2.6515625 -2.1171875 1.828125 C-1.06917969 0.92320313 -1.06917969 0.92320313 0 0 Z " fill="#030611" transform="translate(25,127)"/>
<path d="M0 0 C0.66 0.99 1.32 1.98 2 3 C2.66 3 3.32 3 4 3 C3.75 5.875 3.75 5.875 3 9 C1.02 9.99 1.02 9.99 -1 11 C-0.67 7.37 -0.34 3.74 0 0 Z " fill="#3C306B" transform="translate(148,226)"/>
<path d="M0 0 C0.66 0 1.32 0 2 0 C1.44299928 3.23060419 0.70784878 5.0658223 -2 7 C-4.6875 7.1875 -4.6875 7.1875 -7 7 C-4.66666667 4.66666667 -2.33333333 2.33333333 0 0 Z " fill="#BBC5C9" transform="translate(212,209)"/>
<path d="M0 0 C2.97 0 5.94 0 9 0 C9.33 1.98 9.66 3.96 10 6 C9.01 6 8.02 6 7 6 C7 4.68 7 3.36 7 2 C4.69 2 2.38 2 0 2 C0 1.34 0 0.68 0 0 Z " fill="#353465" transform="translate(195,154)"/>
<path d="M0 0 C0.66 0.33 1.32 0.66 2 1 C2 1.66 2 2.32 2 3 C0.04578965 3.86355778 -1.91351347 4.71559934 -3.875 5.5625 C-4.96554688 6.03816406 -6.05609375 6.51382813 -7.1796875 7.00390625 C-8.11039062 7.33261719 -9.04109375 7.66132813 -10 8 C-10.66 7.67 -11.32 7.34 -12 7 C-10.04754815 5.80285445 -8.08785003 4.61751926 -6.125 3.4375 C-5.03445312 2.77621094 -3.94390625 2.11492187 -2.8203125 1.43359375 C-1.88960937 0.96050781 -0.95890625 0.48742187 0 0 Z " fill="#AF9DE4" transform="translate(120,220)"/>
<path d="M0 0 C3.16115776 1.36983503 3.9927092 1.9890638 6 5 C5.67 5.66 5.34 6.32 5 7 C1.83884224 5.63016497 1.0072908 5.0109362 -1 2 C-0.67 1.34 -0.34 0.68 0 0 Z " fill="#ECC865" transform="translate(147,60)"/>
<path d="M0 0 C0.66 0 1.32 0 2 0 C2 3.3 2 6.6 2 10 C1.01 10 0.02 10 -1 10 C-0.67 6.7 -0.34 3.4 0 0 Z " fill="#E8DF6D" transform="translate(137,64)"/>
<path d="M0 0 C0.33 0 0.66 0 1 0 C1.33 3.3 1.66 6.6 2 10 C2.66 9.34 3.32 8.68 4 8 C4 10.31 4 12.62 4 15 C2.015625 13.88671875 2.015625 13.88671875 0 12 C-0.390625 9.08203125 -0.390625 9.08203125 -0.25 5.8125 C-0.21390625 4.72582031 -0.1778125 3.63914063 -0.140625 2.51953125 C-0.09421875 1.68808594 -0.0478125 0.85664063 0 0 Z " fill="#9BC8D2" transform="translate(222,174)"/>
<path d="M0 0 C0.66 0 1.32 0 2 0 C2.33 3.3 2.66 6.6 3 10 C2.01 10 1.02 10 0 10 C0 6.7 0 3.4 0 0 Z " fill="#EC8D49" transform="translate(130,61)"/>
<path d="M0 0 C0.99 0 1.98 0 3 0 C2.34 2.97 1.68 5.94 1 9 C-1.14809171 5.77786243 -1.29386153 4.72224599 -1 1 C-0.67 0.67 -0.34 0.34 0 0 Z " fill="#CFD3D1" transform="translate(33,59)"/>
<path d="M0 0 C-0.44909061 1.48199902 -0.90956564 2.96055236 -1.375 4.4375 C-1.63023438 5.26121094 -1.88546875 6.08492187 -2.1484375 6.93359375 C-3 9 -3 9 -5 10 C-4.88637738 8.5199159 -4.75877092 7.04089926 -4.625 5.5625 C-4.55539063 4.73878906 -4.48578125 3.91507813 -4.4140625 3.06640625 C-4.27742188 2.38449219 -4.14078125 1.70257813 -4 1 C-2 0 -2 0 0 0 Z " fill="#A494D7" transform="translate(98,214)"/>
<path d="M0 0 C3.56521654 1.78260827 6.71455357 3.75992289 10 6 C8.02 6.99 8.02 6.99 6 8 C4.02 5.36 2.04 2.72 0 0 Z " fill="#EFEB95" transform="translate(129,71)"/>
<path d="M0 0 C1.98 0 3.96 0 6 0 C5.34 1.65 4.68 3.3 4 5 C2.35 4.67 0.7 4.34 -1 4 C-0.67 2.68 -0.34 1.36 0 0 Z " fill="#6F4D23" transform="translate(144,55)"/>
<path d="M0 0 C1.32 0 2.64 0 4 0 C4 2.97 4 5.94 4 9 C3.34 8.67 2.68 8.34 2 8 C2 6.02 2 4.04 2 2 C1.34 2 0.68 2 0 2 C0 1.34 0 0.68 0 0 Z " fill="#6C63AF" transform="translate(125,59)"/>
<path d="M0 0 C1.65 0 3.3 0 5 0 C4.01 0.495 4.01 0.495 3 1 C3 4.3 3 7.6 3 11 C2.67 11 2.34 11 2 11 C2 8.69 2 6.38 2 4 C1.34 4 0.68 4 0 4 C0 2.68 0 1.36 0 0 Z " fill="#7F5B27" transform="translate(130,57)"/>
<path d="M0 0 C1.32 0 2.64 0 4 0 C3.25 4.75 3.25 4.75 1 7 C-0.0625 4.625 -0.0625 4.625 -1 2 C-0.67 1.34 -0.34 0.68 0 0 Z " fill="#D18245" transform="translate(143,59)"/>
<path d="M0 0 C1.8871875 0.061875 1.8871875 0.061875 3.8125 0.125 C2.25 1.6875 2.25 1.6875 -0.1875 3.125 C-3.9375 2.8125 -3.9375 2.8125 -7.1875 2.125 C-4.09861478 0.06574319 -3.47814073 -0.1140374 0 0 Z " fill="#655DA0" transform="translate(47.1875,218.875)"/>
<path d="M0 0 C0.99 1.32 1.98 2.64 3 4 C2.01 4.33 1.02 4.66 0 5 C0 5.66 0 6.32 0 7 C-0.99 7.33 -1.98 7.66 -3 8 C-1.125 2.25 -1.125 2.25 0 0 Z " fill="#9D91B5" transform="translate(150,68)"/>
<path d="M0 0 C0.33 0.66 0.66 1.32 1 2 C-0.98 2.33 -2.96 2.66 -5 3 C-5 2.34 -5 1.68 -5 1 C-5.66 0.67 -6.32 0.34 -7 0 C-3.88407501 -1.03864166 -2.9737344 -1.09036928 0 0 Z " fill="#ACC6CF" transform="translate(66,33)"/>
<path d="M0 0 C0 3 0 3 -1 6 C-3.5625 7.6875 -3.5625 7.6875 -6 9 C-4.47291037 5.56404834 -2.40072955 2.88087546 0 0 Z " fill="#201A46" transform="translate(20,133)"/>
<path d="M0 0 C1.875 0.25 1.875 0.25 4 1 C5.25 3.0625 5.25 3.0625 6 5 C4.35 5.33 2.7 5.66 1 6 C0.67 4.02 0.34 2.04 0 0 Z " fill="#48396B" transform="translate(92,56)"/>
<path d="M0 0 C0.99 0.33 1.98 0.66 3 1 C2.525625 1.598125 2.05125 2.19625 1.5625 2.8125 C-0.16465744 5.00382924 -0.16465744 5.00382924 -1 8 C-1.66 8 -2.32 8 -3 8 C-1.125 1.125 -1.125 1.125 0 0 Z " fill="#534688" transform="translate(157,222)"/>
<path d="M0 0 C0.66 0 1.32 0 2 0 C2.66 1.98 3.32 3.96 4 6 C1.525 5.01 1.525 5.01 -1 4 C-0.67 2.68 -0.34 1.36 0 0 Z " fill="#3D316E" transform="translate(130,222)"/>
<path d="M0 0 C0 1.65 0 3.3 0 5 C-1.65 4.67 -3.3 4.34 -5 4 C-4.67 3.01 -4.34 2.02 -4 1 C-2 0 -2 0 0 0 Z " fill="#C1AEF6" transform="translate(126,218)"/>
<path d="M0 0 C1.98 0.99 3.96 1.98 6 3 C5.67 4.65 5.34 6.3 5 8 C2.74754119 5.31158141 1.11786042 3.35358125 0 0 Z " fill="#3B306A" transform="translate(170,207)"/>
<path d="M0 0 C0.99 0.99 1.98 1.98 3 3 C2.67 3.99 2.34 4.98 2 6 C1.01 5.67 0.02 5.34 -1 5 C-1.33 4.01 -1.66 3.02 -2 2 C-1.34 1.34 -0.68 0.68 0 0 Z " fill="#8276A4" transform="translate(138,58)"/>
<path d="M0 0 C1.32 0 2.64 0 4 0 C3.50168276 3.68754757 2.89932357 5.60490662 0 8 C0.185625 7.236875 0.37125 6.47375 0.5625 5.6875 C1.22819173 2.91032625 1.22819173 2.91032625 0 0 Z " fill="#66537C" transform="translate(139,58)"/>
</svg>
